<svg width="618" height="581" viewBox="0 0 618 581" xmlns="http://www.w3.org/2000/svg" xmlns:xlink="http://www.w3.org/1999/xlink"><svg width="60" height="60" viewBox="0 0 60 60" id="project|images|icons|AddMember.svg" x="50" y="268" xmlns="http://www.w3.org/2000/svg"><defs><path d="M30 59.998H1.498C.668 59.998 0 59.328 0 58.5v-2.797c0-.413.15-1.042.332-1.41 0 0 .433-1.01 1.176-1.776.742-.767 5.035-4.583 12.843-8.66 5.806-2.63 6.97-4.532 7.89-6.87 1.407-3.57-.173-6.735-.173-6.735-4.76-7.51-5.335-12.42-3.75-21.805C19.337 2.413 26.517 0 30 0v59.998zm0 0V0c3.484 0 10.664 2.413 11.683 8.447 1.586 9.386 1.01 14.296-3.75 21.805 0 0-1.58 3.163-.173 6.734.92 2.34 2.085 4.24 7.89 6.87 7.807 4.078 12.1 7.894 12.842 8.66.743.768 1.176 1.776 1.176 1.776.183.37.332.998.332 1.41V58.5c0 .827-.67 1.498-1.498 1.498H30z" id="aaa"/></defs><g fill="none" fill-rule="evenodd"><mask id="aab" fill="#fff"><use xlink:href="#aaa"/></mask><path fill="#DDD" mask="url(#aab)" d="M-3.75 63.748h67.5V-3.75h-67.5z"/></g></svg><svg width="52" height="52" viewBox="0 0 52 52" id="project|images|icons|AddMenberSmall.svg" y="455" xmlns="http://www.w3.org/2000/svg"><defs><path d="M0 5.99A5.993 5.993 0 0 1 5.99 0h40.02A5.993 5.993 0 0 1 52 5.99v40.02A5.993 5.993 0 0 1 46.01 52H5.99A5.993 5.993 0 0 1 0 46.01V5.99z" id="aba"/><mask id="abb" x="0" y="0" width="52" height="52" fill="#fff"><use xlink:href="#aba"/></mask></defs><g fill="none" fill-rule="evenodd"><use stroke="#BABABA" mask="url(#abb)" stroke-width="4" fill="#F4F4F4" stroke-dasharray="8,4" xlink:href="#aba"/><path d="M21.614 26.47c.75 1.176.908 1.727.19 2.382a6.54 6.54 0 0 0-.19.163.11.11 0 0 0-.008.01c-.193.297-.44.46-1.666 1.22-.064.04-2.082 1.277-2.725 1.68-.195.12-.38.237-.56.35-1.142.726-2 1.31-2.568 1.758-.614.485-.845 1.286-.693 2.177.064.38.196.728.35.96.03.045.058.08.082.11l20.366.07c2.337 0 2.625-2.705.112-4.073l-.09-.055a27.742 27.742 0 0 0-1.11-.683c.04.022-1.423-.85-1.872-1.12l-.206-.124c-2.077-1.254-2.943-1.824-3.235-2.264a12.04 12.04 0 0 0-.144-.207 1.812 1.812 0 0 1-.21-.366c-.296-.71-.136-1.047.715-2.24l.053-.11.088-.1c1.143-1.315 1.837-3.1 1.837-4.75 0-3.893-2.17-6.61-5.392-6.61-3.202 0-5.314 2.692-5.314 6.61 0 1.77.795 3.703 2.06 5.03l.08.084.055.094zm-7.93 10.808h-.01.01zm15.63-9.197a.185.185 0 0 0 .008-.024z" stroke="#BABABA" stroke-width="2"/><path fill="#BABABA" d="M32.5 23.4h11.05v1.95H32.5z"/><path fill="#BABABA" d="M39 18.85V29.9h-1.95V18.85z"/></g></svg><svg width="46" height="46" viewBox="0 0 46 46" id="project|images|icons|Alert.svg" x="258" y="507" xmlns="http://www.w3.org/2000/svg"><g fill="none" fill-rule="evenodd"><circle fill="#F86252" cx="23" cy="23" r="23"/><path d="M19.472 11.252C19.212 8.904 20.922 7 23.282 7c2.363 0 4.07 1.9 3.808 4.252l-1.668 15.013H21.14l-1.67-15.013zm3.81 28.31a4.28 4.28 0 1 1 0-8.562 4.28 4.28 0 0 1 0 8.562z" fill="#FFF"/></g></svg><svg width="18" height="18" viewBox="0 0 18 18" id="project|images|icons|AlertMini.svg" x="598" y="138" xmlns="http://www.w3.org/2000/svg"><g fill="none" fill-rule="evenodd"><circle fill="#F86252" cx="9" cy="9" r="9"/><path d="M7.62 4.412c-.102-.924.558-1.673 1.49-1.673.925 0 1.592.75 1.49 1.67l-.652 5.867H8.272l-.65-5.866zm1.49 11.07a1.675 1.675 0 1 1 0-3.35 1.675 1.675 0 0 1 0 3.35z" fill="#FFF"/></g></svg><svg width="60" height="60" viewBox="0 0 60 60" id="project|images|icons|AppAddressSyncBig.svg" x="378" y="180" xmlns="http://www.w3.org/2000/svg"><defs><path id="aea" d="M0 0h60v60H0z"/></defs><g fill="none" fill-rule="evenodd"><mask id="aeb" fill="#fff"><use xlink:href="#aea"/></mask><use fill="#FC0" xlink:href="#aea"/><use fill-opacity=".6" fill="#55D041" xlink:href="#aea"/><path d="M30 38V20c1.045 0 3.2.724 3.505 2.534.476 2.816.303 4.29-1.125 6.542 0 0-.474.95-.052 2.02.276.702.626 1.272 2.367 2.06 2.342 1.225 3.63 2.37 3.853 2.6.222.23.317.467.317.467.075.147.135.4.135.564v.616c0 .33-.27.597-.597.597H30zm0 0h-8.403a.6.6 0 0 1-.597-.597v-.616c0-.164.06-.417.135-.564 0 0 .095-.237.317-.467.223-.23 1.51-1.375 3.853-2.6 1.74-.788 2.09-1.36 2.367-2.06.422-1.07-.052-2.02-.052-2.02-1.428-2.253-1.6-3.726-1.125-6.542C26.8 20.724 28.955 20 30 20v18z" fill="#FFF" mask="url(#aeb)"/><path d="M14.03 31H12l2.508-5.017.05-.192.026.044L15 25l3 6h-1.965c.513 7.265 6.57 13 13.965 13 4.988 0 9.366-2.608 11.846-6.535l1.1 1.906.04-.02C40.082 43.377 35.346 46 30 46c-8.5 0-15.453-6.63-15.97-15zm31.94 0H48l-3 6-3-6h1.965c.023-.33.035-.664.035-1 0-7.732-6.268-14-14-14-5.53 0-10.31 3.206-12.585 7.86l-1.173-2.032C19.032 17.14 24.15 14 30 14c8.837 0 16 7.163 16 16 0 .336-.01.67-.03 1z" fill="#FFF" fill-rule="nonzero" mask="url(#aeb)"/></g></svg><svg width="40" height="40" viewBox="0 0 40 40" id="project|images|icons|AppApproval.svg" x="304" y="455" xmlns="http://www.w3.org/2000/svg"><g fill="none" fill-rule="evenodd"><path fill="#F7B51C" d="M0 0h40v40H0z"/><path d="M11.563 23c-.84 0-1.53.688-1.53 1.537L10 28h20l.032-3.463A1.53 1.53 0 0 0 28.5 23h-5.648l1.44-8.745c.203-.853.323-1.535.323-1.947a4.615 4.615 0 0 0-9.23 0c0 .42.125 1.12.334 1.993l1.495 8.7h-5.653zM12 30h15.982l.018.974c0 .567-.306 1.026-.683 1.026H12.7c-.377 0-.683-.455-.683-1.026L12 30z" fill="#FFF"/></g></svg><svg width="60" height="60" viewBox="0 0 60 60" id="project|images|icons|AppApprovalBig.svg" x="378" y="60" xmlns="http://www.w3.org/2000/svg"><g fill="none" fill-rule="evenodd"><path fill="#F7B51C" d="M0 0h60v60H0z"/><path d="M16.3 33.985a2.308 2.308 0 0 0-2.298 2.306V43h31.995v-6.71a2.296 2.296 0 0 0-2.297-2.305h-9.355l2.093-12.602c.304-1.28.485-2.303.485-2.92a6.923 6.923 0 1 0-13.846 0c0 .63.188 1.677.502 2.99l2.31 12.532H16.3zM17 46h26v1.643c0 .75-.506 1.357-1.13 1.357H18.13c-.624 0-1.13-.603-1.13-1.357V46z" fill="#FFF"/></g></svg><svg width="40" height="40" viewBox="0 0 40 40" id="project|images|icons|AppAttendance.svg" x="344" y="455" xmlns="http://www.w3.org/2000/svg"><defs><path id="aha" d="M0 0h40v40H0z"/></defs><g fill="none" fill-rule="evenodd"><use fill="#F5B73E" xlink:href="#aha"/><use fill="#F7B51C" xlink:href="#aha"/><path d="M10.082 17.817a9.783 9.783 0 0 1-.082-1.26c0-5.84 4.477-10.403 10.204-10.403 5.32 0 9.796 4.564 9.796 10.402 0 .384-.022.764-.066 1.14a9.957 9.957 0 0 1-.885 3.085c-2.355 5.54-8.388 12.1-8.388 12.1a.87.87 0 0 1-1.325-.003s-8.584-9.213-9.256-15.06zM20.117 20c2.007 0 3.728-1.722 3.728-3.846s-1.72-3.846-3.728-3.846c-2.24 0-3.962 1.722-3.962 3.846S17.877 20 20.117 20z" fill="#FFF"/></g></svg><svg width="60" height="60" viewBox="0 0 60 60" id="project|images|icons|AppAttendanceBig.svg" y="335" xmlns="http://www.w3.org/2000/svg"><defs><path id="aia" d="M0 0h60v60H0z"/></defs><g fill="none" fill-rule="evenodd"><use fill="#F5B73E" xlink:href="#aia"/><use fill="#F7B51C" xlink:href="#aia"/><path d="M15.122 26.723c-.08-.62-.122-1.25-.122-1.89C15 16.077 21.716 9.23 30.306 9.23 38.284 9.23 45 16.078 45 24.834a14.73 14.73 0 0 1-.097 1.71 14.922 14.922 0 0 1-1.202 4.35C40.327 39.17 31.33 48.94 31.33 48.94c-.728.822-1.923.82-2.646.005 0 0-12.56-13.46-13.56-22.222zM30.175 30c3.01 0 5.593-2.583 5.593-5.77 0-3.185-2.583-5.768-5.593-5.768-3.36 0-5.942 2.583-5.942 5.77S26.815 30 30.175 30z" fill="#FFF"/></g></svg><svg width="46" height="46" viewBox="0 0 46 46" id="project|images|icons|AppAttendanceMiddle.svg" x="212" y="507" xmlns="http://www.w3.org/2000/svg"><g fill="none" fill-rule="evenodd"><rect fill="#F7B51C" width="46" height="46" rx="6"/><g fill="#FFF"><path d="M10.715 20.474a12.105 12.105 0 0 1-.083-1.417c0-7.22 5.538-12.865 12.62-12.865 6.58 0 12.116 5.645 12.116 12.865 0 .42-.022.837-.064 1.25l.143-.003C34.64 27.618 23.673 39.64 23.673 39.64a.868.868 0 0 1-1.328.003s-10.93-11.804-11.64-19.17h.01zm12.525 6.302c4.126 0 7.666-3.593 7.666-8.026 0-4.432-3.54-8.025-7.666-8.025-4.606 0-8.146 3.593-8.146 8.025 0 4.433 3.54 8.026 8.146 8.026z"/><path d="M26.614 15.86l1.445 1.452-5.854 5.873-3.463-3.478 1.445-1.452 2.017 2.027z"/></g></g></svg><svg width="60" height="60" viewBox="0 0 60 60" id="project|images|icons|AppBigCard.svg" x="110" y="268" xmlns="http://www.w3.org/2000/svg"><g fill="none" fill-rule="evenodd"><rect fill="#F3675A" width="60" height="60" rx="6"/><rect fill="#FFF" x="11.471" y="17.647" width="37.059" height="25.588" rx="2.615"/><path fill="#F97063" d="M16.765 26.47h14.118V30H16.765z"/><circle fill="#F97063" cx="40.588" cy="25.588" r="2.647"/><path fill="#F97063" d="M16.765 33.53h26.47v3.53h-26.47z"/></g></svg><svg width="60" height="60" viewBox="0 0 60 60" id="project|images|icons|AppBigColleague.svg" x="170" y="268" xmlns="http://www.w3.org/2000/svg"><g fill="none" fill-rule="evenodd"><path stroke-opacity=".06" stroke="#979797" fill="#FCFCFC" d="M.5.5h59v59H.5z"/><path d="M30.948 39.61a5.168 5.168 0 0 0-.318-.062 5.092 5.092 0 0 0-.32-.045 16.34 16.34 0 0 1-9.103-5.067 1.27 1.27 0 0 0-1.89 1.7 1.252 1.252 0 0 0 .27.246 16.352 16.352 0 0 1 4.857 8.737 5.195 5.195 0 0 0 .178 1.076 5.318 5.318 0 0 0 8.89 2.357 5.318 5.318 0 0 0-2.564-8.944" fill="#FB6500"/><path d="M48.553 26.028a5.32 5.32 0 0 0-9.05 3.203 16.348 16.348 0 0 1-5.066 9.104 1.272 1.272 0 1 0 1.945 1.62c.117-.122.234-.245.356-.366a16.34 16.34 0 0 1 8.38-4.49 5.2 5.2 0 0 0 1.08-.18 5.32 5.32 0 0 0 2.356-8.89" fill="#078EFF"/><path d="M26.028 10.987a5.32 5.32 0 0 0 2.564 8.943 6.01 6.01 0 0 0 .64.107 16.338 16.338 0 0 1 9.102 5.066 1.273 1.273 0 0 0 1.8-1.8 1.28 1.28 0 0 0-.18-.145 16.35 16.35 0 0 1-4.858-8.737 5.434 5.434 0 0 0-.177-1.076 5.32 5.32 0 0 0-8.893-2.357" fill="#31CE00"/><path d="M19.993 30.63c.018-.107.032-.214.044-.32a16.36 16.36 0 0 1 5.067-9.103 1.272 1.272 0 1 0-1.946-1.622 16.336 16.336 0 0 1-8.737 4.858 5.264 5.264 0 0 0-1.075.18 5.32 5.32 0 1 0 6.65 6.008" fill="#FC0"/></g></svg><svg width="60" height="60" viewBox="0 0 60 60" id="project|images|icons|AppBigExmail.svg" x="230" y="268" xmlns="http://www.w3.org/2000/svg"><g fill="none" fill-rule="evenodd"><path fill="#4794E8" d="M0 0h60v60H0z"/><path d="M11 18.996A3.004 3.004 0 0 1 13.998 16h32.004A3.003 3.003 0 0 1 49 18.996v22.008A3.004 3.004 0 0 1 46.002 44H13.998A3.003 3.003 0 0 1 11 41.004V18.996zm4 2.44v2.295l14.17 8.91c.48.3 1.23.295 1.7 0l14.15-8.91-.02-2.293-14.087 7.427c-.49.26-1.288.262-1.776.006L15 21.435z" fill="#FFF"/></g></svg><svg width="60" height="60" viewBox="0 0 60 60" id="project|images|icons|AppBigNotice.svg" x="290" y="268" xmlns="http://www.w3.org/2000/svg"><g fill="none" fill-rule="evenodd"><path fill="#F7B51C" d="M0 0h60v60H0z"/><path d="M27 34.634h-1.944l.578 11.23c.29 2.094-3.026 1.57-3.026 1.57-.547-.04-1.014-.525-1.044-1.067l-.633-11.733h-3.62v-.037a7.5 7.5 0 0 1 0-14.957v-.027H27v15.02zm2 0v-15.02h1.356c3.313 0 8.16-1.596 10.823-3.564l3.205-2.37c.89-.657 1.614-.297 1.614.808V38c0 1.1-.783 1.566-1.747 1.03L41.6 37.553c-2.897-1.612-7.93-2.918-11.245-2.918H29z" fill="#FFF"/></g></svg><svg width="60" height="60" viewBox="0 0 60 60" id="project|images|icons|AppBigPhone.svg" x="378" xmlns="http://www.w3.org/2000/svg"><g fill="none" fill-rule="evenodd"><path fill="#3DCF52" d="M0 0h60v60H0z"/><path d="M46.712 45.068l-1.238 1.238c-3.42 3.418-13.302-.924-22.076-9.697-8.774-8.776-13.115-18.66-9.697-22.078l1.24-1.238c1.414-1.414 4.33-2.297 4.33-2.297l6.018 9.276c.303.467.31 1.23.027 1.693l-1.547 2.513c-.545.885-.453 2.256.206 3.06 0 0 2.306 2.87 4.17 4.735 1.85 1.85 4.312 3.77 4.312 3.77.804.653 2.184.74 3.07.193l2.467-1.518c.472-.29 1.243-.302 1.717-.027l9.665 5.608s-1.26 3.364-2.663 4.766z" fill="#FFF"/></g></svg><svg width="40" height="40" viewBox="0 0 40 40" id="project|images|icons|AppCard.svg" x="558" y="400" xmlns="http://www.w3.org/2000/svg"><g fill="none" fill-rule="evenodd"><path fill="#FF9500" d="M0 0h40v40H0z"/><path d="M7 12.504C7 11.674 7.67 11 8.49 11h23.02A1.49 1.49 0 0 1 33 12.504v14.992c0 .83-.67 1.504-1.49 1.504H8.49A1.49 1.49 0 0 1 7 27.496V12.504zm5.308 4.6a1.538 1.538 0 1 0 0-3.077 1.538 1.538 0 0 0 0 3.077zM16 15v1h12v-1H16zm0 4v1h12v-1H16zm0 4v1h12v-1H16z" fill="#FFF"/></g></svg><svg width="60" height="60" viewBox="0 0 60 60" id="project|images|icons|AppCardBig.svg" x="378" y="120" xmlns="http://www.w3.org/2000/svg"><g fill="none" fill-rule="evenodd"><path fill="#FF9500" d="M0 0h60v60H0z"/><path d="M10 18.996A3 3 0 0 1 13.007 16h33.986C48.653 16 50 17.35 50 18.996v22.008A3 3 0 0 1 46.993 44H13.007A3.007 3.007 0 0 1 10 41.004V18.996zm8.692 7.312a2.308 2.308 0 1 0 0-4.616 2.308 2.308 0 0 0 0 4.616zM24 23v2h17v-2H24zm0 6v2h17v-2H24zm0 6v2h17v-2H24z" fill="#FFF"/></g></svg><svg width="40" height="40" viewBox="0 0 40 40" id="project|images|icons|AppColleague.svg" x="558" y="440" xmlns="http://www.w3.org/2000/svg"><g fill="none" fill-rule="evenodd"><path fill="#FF776E" d="M0 0h40v40H0z"/><path d="M20.753 26.45a3.497 3.497 0 1 1-4.278 3.623 10.754 10.754 0 0 0-3.195-5.746.84.84 0 0 1-.176-.163.836.836 0 0 1 1.242-1.116 10.747 10.747 0 0 0 5.986 3.332 3.35 3.35 0 0 1 .42.07zm11.578-8.933a3.498 3.498 0 0 1-2.256 5.965 10.746 10.746 0 0 0-5.746 3.195.888.888 0 0 1-.162.175.836.836 0 0 1-1.117-1.242 10.75 10.75 0 0 0 3.33-5.986 4.058 4.058 0 0 1 .07-.42 3.498 3.498 0 0 1 5.883-1.686zM17.52 7.625a3.498 3.498 0 0 1 5.964 2.26 10.752 10.752 0 0 0 3.197 5.745.84.84 0 0 1 .174.162.837.837 0 0 1-1.24 1.117 10.745 10.745 0 0 0-5.988-3.334 4.057 4.057 0 0 1-.42-.07 3.5 3.5 0 0 1-1.686-5.882zm-3.97 12.92a3.484 3.484 0 0 1-.975 1.895 3.498 3.498 0 1 1-2.688-5.965 10.744 10.744 0 0 0 5.746-3.195.84.84 0 0 1 .163-.176.836.836 0 0 1 1.117 1.242 10.76 10.76 0 0 0-3.334 5.986c-.006.07-.016.142-.028.212z" fill="#FFF"/></g></svg><svg width="60" height="60" viewBox="0 0 60 60" id="project|images|icons|AppColleagueBig.svg" x="378" y="240" xmlns="http://www.w3.org/2000/svg"><g fill="none" fill-rule="evenodd"><path fill="#FF776E" d="M0 0h60v60H0z"/><path d="M31.13 39.674a5.1 5.1 0 0 0-.314-.06 5.023 5.023 0 0 0-.317-.045 16.12 16.12 0 0 1-8.98-5 1.253 1.253 0 0 0-1.864 1.676 1.235 1.235 0 0 0 .264.243 16.132 16.132 0 0 1 4.793 8.62c.01.17.03.34.057.507a5.22 5.22 0 0 0 1.47 2.88 5.246 5.246 0 0 0 7.42 0 5.246 5.246 0 0 0-2.53-8.824m17.367-13.398a5.247 5.247 0 0 0-8.928 3.16 16.127 16.127 0 0 1-5 8.98 1.254 1.254 0 1 0 1.92 1.6 16.12 16.12 0 0 1 8.62-4.793 5.13 5.13 0 0 0 1.06-.177 5.247 5.247 0 0 0 2.326-8.77m-22.22-14.838a5.25 5.25 0 0 0 2.53 8.822 5.93 5.93 0 0 0 .63.105 16.117 16.117 0 0 1 8.98 4.998 1.256 1.256 0 0 0 1.774-1.775 1.262 1.262 0 0 0-.175-.145 16.128 16.128 0 0 1-4.793-8.62 5.36 5.36 0 0 0-.175-1.062 5.247 5.247 0 0 0-8.77-2.324m-5.957 19.38c.018-.106.032-.21.044-.317a16.14 16.14 0 0 1 5-8.98h-.002a1.255 1.255 0 1 0-1.92-1.6 16.116 16.116 0 0 1-8.62 4.79 5.193 5.193 0 0 0-1.06.178 5.247 5.247 0 1 0 6.56 5.926" fill="#FFF"/></g></svg><svg width="24" height="24" viewBox="0 0 24 24" id="project|images|icons|AppContactParty.svg" x="244" y="134" xmlns="http://www.w3.org/2000/svg"><g fill="none" fill-rule="evenodd"><path fill="#7DA4D1" d="M0 0h24v24H0z"/><path d="M5.4 9h12.208c.553 0 .992.446.992.997v6.406a.998.998 0 0 1-.992.997H6.392a.99.99 0 0 1-.992-.997V9zm.902-2.4h5.488l1.153 1.8H5.4v-.9c0-.5.404-.9.902-.9z" fill="#FFF"/></g></svg><svg width="24" height="24" viewBox="0 0 24 24" id="project|images|icons|AppContactTag.svg" x="348" y="222" xmlns="http://www.w3.org/2000/svg"><g fill="none" fill-rule="evenodd"><path fill="#7DA4D1" d="M0 0h24v24H0z"/><path d="M9 7.2h9.803c.55 0 .997.45.997.99v7.62c0 .546-.45.99-.997.99H9L4.2 12 9 7.2zm-.6 5.4a.6.6 0 1 0 0-1.2.6.6 0 0 0 0 1.2z" fill="#FFF"/></g></svg><svg width="60" height="60" viewBox="0 0 60 60" id="project|images|icons|AppCorpEncryptData.svg" x="120" y="335" xmlns="http://www.w3.org/2000/svg"><g fill="none" fill-rule="evenodd"><rect fill="#46B2E0" width="60" height="60" rx="4"/><path d="M17.357 17h26.32c.73 0 1.323.592 1.323 1.323v22.354c0 .73-.592 1.323-1.323 1.323H17.36c-.73 0-1.322-.59-1.324-1.32l-.015-7.82L13 29.5l3.005-3.24.03-7.94a1.323 1.323 0 0 1 1.32-1.32zm14.41 13.158V23.58H29.12v6.58h-3.97l5.295 5.824 5.292-5.825h-3.97z" fill="#FFF" fill-rule="nonzero"/></g></svg><svg width="60" height="60" viewBox="0 0 60 60" id="project|images|icons|AppDocument.svg" x="180" y="335" xmlns="http://www.w3.org/2000/svg"><defs><rect id="awa" width="60" height="60" rx="4"/></defs><g fill="none" fill-rule="evenodd"><mask id="awb" fill="#fff"><use xlink:href="#awa"/></mask><use fill="#D8D8D8" xlink:href="#awa"/><g mask="url(#awb)"><path fill="#FFF" d="M0 0h60v60H0z"/><rect fill="#5DA5FB" opacity=".92" width="60" height="60" rx="3"/><path d="M18.057 15h23.886C43.08 15 44 15.92 44 17.057v25.886A2.057 2.057 0 0 1 41.943 45H18.057A2.057 2.057 0 0 1 16 42.943V17.057C16 15.92 16.92 15 18.057 15zm4.296 7.895v1.58h15.294v-1.58H22.353zm0 6.316v1.58h15.294v-1.58H22.353zm0 6.317v1.58h8.94v-1.58h-8.94z" fill="#FFF"/></g></g></svg><svg width="40" height="40" viewBox="0 0 40 40" id="project|images|icons|AppDocument40.svg" x="558" y="280" xmlns="http://www.w3.org/2000/svg"><defs><rect id="axa" width="40" height="40" rx="4"/></defs><g fill="none" fill-rule="evenodd"><mask id="axb" fill="#fff"><use xlink:href="#axa"/></mask><use fill="#D8D8D8" xlink:href="#axa"/><g mask="url(#axb)"><path fill="#FFF" d="M0 0h40v40H0z"/><rect fill="#5DA5FB" opacity=".92" width="40" height="40" rx="3"/><path d="M12.724 10h14.552c1.136 0 2.057.92 2.057 2.057v15.886A2.057 2.057 0 0 1 27.276 30H12.724a2.057 2.057 0 0 1-2.057-2.057V12.057c0-1.136.92-2.057 2.057-2.057zm2.178 5.263v1.053h10.196v-1.053H14.902zm0 4.21v1.053h10.196v-1.052H14.902zm0 4.21v1.054h5.96v-1.053h-5.96z" fill="#FFF"/></g></g></svg><svg width="40" height="40" viewBox="0 0 40 40" id="project|images|icons|AppExmail.svg" x="558" y="240" xmlns="http://www.w3.org/2000/svg"><g fill="none" fill-rule="evenodd"><path fill="#4794E8" d="M0 0h40v40H0z"/><path d="M7 11.503C7 10.673 7.67 10 8.49 10h23.02c.823 0 1.49.665 1.49 1.503v16.994c0 .83-.668 1.503-1.49 1.503H8.49A1.492 1.492 0 0 1 7 28.497V11.503zm2.88 2.92v1.484l9.27 5.582c.48.286 1.25.285 1.723 0l9.218-5.584-.012-1.483-9.17 4.65c-.486.247-1.295.25-1.792 0l-9.235-4.65z" fill="#FFF"/></g></svg><svg width="60" height="60" viewBox="0 0 60 60" id="project|images|icons|AppFuliBig.svg" x="360" y="335" xmlns="http://www.w3.org/2000/svg"><defs><path id="aza" d="M0 0h60v60H0z"/></defs><g fill="none" fill-rule="evenodd"><mask id="azb" fill="#fff"><use xlink:href="#aza"/></mask><use fill="#55D041" xlink:href="#aza"/><use fill-opacity=".4" fill="#008BFF" xlink:href="#aza"/><g mask="url(#azb)"><path fill="#FF745A" d="M0 0h60v60H0z"/><path stroke="#FF745A" stroke-width="1.883" fill="#FFF" d="M40.498 31.39l7.923 13.15-6.77-.352-2.954 6.18-7.922-13.15zm-21.108.038l-7.458 13.42 6.752-.59 3.17 6.074 7.46-13.418z"/><circle stroke="#FF745A" stroke-width="1.883" fill="#FFF" cx="30" cy="26" r="15"/><circle stroke="#FF745A" stroke-width="1.883" cx="30" cy="26" r="8"/></g></g></svg><svg width="60" height="60" viewBox="0 0 60 60" id="project|images|icons|AppGroupMessageBig.svg" x="438" xmlns="http://www.w3.org/2000/svg"><defs><path id="baa" d="M0 0h60v60H0z"/></defs><g fill="none" fill-rule="evenodd"><mask id="bab" fill="#fff"><use xlink:href="#baa"/></mask><use fill="#55D041" xlink:href="#baa"/><path d="M15 34l-4-4 4-4v-7a2 2 0 0 1 2-2h26a2 2 0 0 1 2 2v22a2 2 0 0 1-2 2H17a2 2 0 0 1-2-2v-7z" fill="#FFF" mask="url(#bab)"/><path d="M34 34.16v-9.69c.697 0 2.133.448 2.337 1.567.317 1.74.202 2.652-.75 4.045 0 0-.316.587-.035 1.25.184.434.417.786 1.578 1.274 1.56.757 2.42 1.465 2.568 1.607a.755.755 0 0 1 .188.248c.063.115.114.31.114.438v.242c0 .254-.224.46-.5.46h-4.04a.913.913 0 0 0-.07-.176s-.113-.25-.33-.456c-.106-.102-.46-.4-1.06-.81zm-2.93-1.64c.99-.445 1.205-.78 1.378-1.188.28-.663-.035-1.25-.035-1.25-.952-1.393-1.067-2.304-.75-4.045.204-1.12 1.64-1.567 2.337-1.567v9.69a21.413 21.413 0 0 0-2.686-1.535c-.084-.036-.166-.07-.244-.106zM27.117 37V23c.827 0 2.53.563 2.772 1.97.375 2.19.24 3.337-.89 5.09 0 0-.376.737-.04 1.57.216.546.492.99 1.87 1.603 1.852.952 2.87 1.842 3.046 2.02.176.18.25.365.25.365.06.114.108.31.108.44v.477a.47.47 0 0 1-.473.465h-6.644zm0 0h-6.644a.47.47 0 0 1-.473-.465v-.478c0-.128.048-.325.107-.44 0 0 .075-.184.25-.363.177-.18 1.195-1.07 3.048-2.02 1.377-.614 1.653-1.058 1.87-1.604a2.05 2.05 0 0 0-.04-1.57c-1.13-1.753-1.266-2.9-.89-5.09.243-1.407 1.945-1.97 2.772-1.97v14z" fill="#4CBB3A" mask="url(#bab)"/></g></svg><svg width="60" height="60" viewBox="0 0 60 60" id="project|images|icons|AppHardwareBig.svg" x="438" y="60" xmlns="http://www.w3.org/2000/svg"><g fill="none" fill-rule="evenodd"><rect fill="#46B2E0" width="60" height="60" rx="4"/><path d="M30.773 44.7V30.32L48 23.628V38l-17.227 6.7zm-1.5-.023L12 37V23.627l17.273 6.71v14.34zM48 22l-18 7.008L12 22l18-7 18 7z" fill="#FFF"/></g></svg><svg width="60" height="60" viewBox="0 0 60 60" id="project|images|icons|AppHolidayBig.svg" x="438" y="120" xmlns="http://www.w3.org/2000/svg"><g fill="none" fill-rule="evenodd"><rect fill="#35AADC" width="60" height="60" rx="6"/><path d="M27.06 49.725a7.504 7.504 0 0 0 4.62-6.558h.085V30.882H48.51C48.05 21.06 39.937 13.235 30 13.235S11.952 21.06 11.49 30.882h16.745v13.235h-.226a3.983 3.983 0 0 1-1.706 2.084v.33a1.81 1.81 0 1 0 .755 3.197z" fill="#FFF"/><rect fill="#FFF" x="28.235" y="11.538" width="3.529" height="5.769" rx="1.765"/></g></svg><svg width="40" height="40" viewBox="0 0 40 40" id="project|images|icons|AppHolidaySmall.svg" x="558" y="200" xmlns="http://www.w3.org/2000/svg"><g fill="none" fill-rule="evenodd"><rect fill="#35AADC" width="40" height="40" rx="6"/><path d="M18.04 33.15a5.003 5.003 0 0 0 3.08-4.372h.056v-8.19H32.34C32.032 14.04 26.625 8.824 20 8.824S7.968 14.04 7.66 20.588h11.164v8.824h-.15a2.655 2.655 0 0 1-1.137 1.39v.218a1.206 1.206 0 1 0 .504 2.13z" fill="#FFF"/><rect fill="#FFF" x="18.824" y="7.692" width="2.353" height="3.846" rx="1.176"/></g></svg><svg width="60" height="60" viewBox="0 0 60 60" id="project|images|icons|AppInstantMsgBig.svg" x="438" y="236" xmlns="http://www.w3.org/2000/svg"><defs><path id="bea" d="M0 0h60v60H0z"/></defs><g fill="none" fill-rule="evenodd"><mask id="beb" fill="#fff"><use xlink:href="#bea"/></mask><use fill="#008BFF" xlink:href="#bea"/><path d="M14 29.195C14 21.337 21.178 15 30 15s16 6.337 16 14.195c0 7.857-7.178 14.194-16 14.194-1.78 0-3.538-.266-5.21-.776a1.03 1.03 0 0 0-.317-.05c-.193 0-.382.06-.587.185l-3.4 2.08a.975.975 0 0 1-.538.17c-.547 0-.984-.464-.984-1.028 0-.144.02-.245.074-.43l.025-.092.453-1.79.247-.977a.918.918 0 0 0 .04-.228.635.635 0 0 0-.25-.51C16.063 37.265 14 33.37 14 29.195zM30 31a2 2 0 1 0 0-4 2 2 0 0 0 0 4zm-8 0a2 2 0 1 0 0-4 2 2 0 0 0 0 4zm16 0a2 2 0 1 0 0-4 2 2 0 0 0 0 4z" fill="#FFF" fill-rule="nonzero" mask="url(#beb)"/></g></svg><svg id="project|images|icons|AppKefuBig.svg" viewBox="-275 367 60 60" width="60" height="60" x="438" y="296" xmlns="http://www.w3.org/2000/svg"><style>.bfst0{fill:#269cff}.bfst1{fill:none;stroke:#fff;stroke-width:2}.bfst2{fill:#fff}.bfst3{fill:none;stroke:#fff;stroke-width:1.5}</style><path class="bfst0" d="M-269 367h48c3.3 0 6 2.7 6 6v48c0 3.3-2.7 6-6 6h-48c-3.3 0-6-2.7-6-6v-48c0-3.3 2.7-6 6-6z"/><g transform="translate(9 10.5)"><path class="bfst1" d="M-237.5 387.2c0-11.2-7.7-20.2-17.2-20.2s-17.2 9.1-17.2 20.2"/><path class="bfst2" d="M-239 380.5h1c1.7 0 3 1.3 3 3v7c0 1.7-1.3 3-3 3h-1c-1.7 0-3-1.3-3-3v-7c0-1.7 1.3-3 3-3zm-22.2 9.5c1.3 2.3 4 3.9 6.4 3.9 2.4 0 5.2-1.7 6.5-3.9l1.8 1c-1.4 3-4.8 5-8.3 5-3.5 0-6.9-2-8.3-5l1.9-1z"/><path class="bfst3" d="M-273.4 384.3c0 10.8 8.7 19.5 19.5 19.5"/><circle class="bfst2" cx="-255" cy="403" r="3"/><path class="bfst2" d="M-272 380.5h1c1.7 0 3 1.3 3 3v7c0 1.7-1.3 3-3 3h-1c-1.7 0-3-1.3-3-3v-7c0-1.7 1.3-3 3-3z"/></g></svg><svg width="60" height="60" viewBox="0 0 60 60" id="project|images|icons|AppLeaveMemberManageBig.svg" y="395" xmlns="http://www.w3.org/2000/svg"><defs><path id="bga" d="M0 0h60v60H0z"/></defs><g fill="none" fill-rule="evenodd"><mask id="bgb" fill="#fff"><use xlink:href="#bga"/></mask><use fill="#FB6500" xlink:href="#bga"/><use fill="#FEB700" xlink:href="#bga"/><path d="M29.5 43H16.824a.824.824 0 0 1-.824-.824v-1.45c0-.25.092-.64.206-.864 0 0 .144-.363.484-.715.34-.353 2.304-2.107 5.876-3.983 2.656-1.21 3.19-2.083 3.61-3.158.643-1.642-.08-3.096-.08-3.096-2.177-3.453-2.44-5.71-1.715-10.026C24.85 16.11 27.908 15 29.5 15v28zm4.614-9.18A8.476 8.476 0 0 0 33.5 37c0 2.342.947 4.463 2.48 6H29.5V15c1.594 0 4.653 1.11 5.12 3.884.725 4.315.46 6.573-1.716 10.026 0 0-.723 1.454-.08 3.096.25.638.54 1.206 1.29 1.815zM42 44a7 7 0 1 1 0-14 7 7 0 0 1 0 14zm-3-8v2h6v-2h-6z" fill="#FFF" mask="url(#bgb)"/></g></svg><svg width="60" height="60" viewBox="0 0 60 60" id="project|images|icons|AppMaterialBig.svg" x="60" y="395" xmlns="http://www.w3.org/2000/svg"><defs><path id="bha" d="M0 0h60v60H0z"/></defs><g fill="none" fill-rule="evenodd"><mask id="bhb" fill="#fff"><use xlink:href="#bha"/></mask><use fill="#008BFF" xlink:href="#bha"/><path d="M19 23v-5.01a.99.99 0 0 1 1-.99h19a1 1 0 0 1 1 .99V23h4c.552 0 1 .455 1 .992v18.016A.995.995 0 0 1 44 43H16c-.55 0-.998-.455-.998-.992V23.992c0-.548.447-.992.998-.992h3zm3-4v4h15v-4H22z" fill="#FFF" mask="url(#bhb)"/></g></svg><svg width="60" height="60" viewBox="0 0 60 60" id="project|images|icons|AppMeetingMngBig.svg" x="120" y="395" xmlns="http://www.w3.org/2000/svg"><g fill="none" fill-rule="evenodd"><rect fill="#008BFF" width="60" height="60" rx="4"/><path d="M40.638 20.692c1.088 0 3.328.715 3.646 2.502.495 2.78.315 4.234-1.17 6.458 0 0-.493.937-.054 1.994.287.693.65 1.256 2.462 2.035 2.436 1.21 3.776 2.34 4.007 2.567.23.227.29.396.29.396.1.18.18.493.18.696v.385c0 .407-.35.738-.783.738H42.54a1.478 1.478 0 0 0-.106-.283s-.176-.398-.514-.73c-.164-.16-.49-.4-1.425-1.053l.143-15.705zm-2.254 10.786c.408-1.04-.05-1.963-.05-1.963-1.383-2.19-1.55-3.622-1.09-6.36.297-1.76 2.382-2.463 3.394-2.463l-.143 15.468c-.91-.67-2.423-1.593-4.112-2.48a18.804 18.804 0 0 1-.354-.165c1.433-.698 2.102-1.396 2.353-2.037zM19.856 20.692c-1.087 0-3.327.715-3.646 2.502-.494 2.78-.315 4.234 1.17 6.458 0 0 .493.937.055 1.994-.288.693-.65 1.256-2.462 2.035-2.437 1.21-3.776 2.34-4.008 2.567-.23.227-.292.396-.292.396-.098.18-.178.493-.178.696v.385c0 .407.35.738.782.738h6.676c.03-.106.067-.206.107-.283 0 0 .176-.398.514-.73.165-.16.49-.4 1.426-1.053l-.144-15.705zm2.427 10.786c-.41-1.04.05-1.963.05-1.963 1.383-2.19 1.55-3.622 1.09-6.36-.297-1.76-2.526-2.378-3.538-2.378l.144 15.468c.91-.67 2.563-1.678 4.253-2.564.123-.054.24-.11.354-.164-1.435-.698-2.104-1.396-2.355-2.037zM30.265 41V19c1.266 0 3.876.885 4.246 3.097.58 3.442.37 5.242-1.36 7.996 0 0-.574 1.16-.064 2.47.335.857.758 1.553 2.868 2.52 2.837 1.494 4.398 2.893 4.667 3.174.27.28.386.57.386.57.09.18.163.49.163.69v.753c0 .403-.327.73-.724.73h-10.18zm0 0h-10.18a.728.728 0 0 1-.723-.73v-.752c0-.2.073-.51.163-.69 0 0 .115-.29.385-.57.27-.282 1.83-1.68 4.667-3.177 2.11-.963 2.533-1.66 2.868-2.517.51-1.31-.063-2.47-.063-2.47-1.73-2.753-1.94-4.553-1.363-7.995C26.39 19.885 29 19 30.263 19v22z" fill="#FFF"/></g></svg><svg width="60" height="60" viewBox="0 0 60 60" id="project|images|icons|AppMemberJoinBig.svg" x="180" y="395" xmlns="http://www.w3.org/2000/svg"><defs><path id="bja" d="M0 0h60v60H0z"/></defs><g fill="none" fill-rule="evenodd"><mask id="bjb" fill="#fff"><use xlink:href="#bja"/></mask><use fill="#FB6500" xlink:href="#bja"/><use fill-opacity=".5" fill="#FEB700" xlink:href="#bja"/><path d="M37.2 37.724V19.73c1.254 0 3.84.83 4.206 2.91.57 3.234.364 4.926-1.35 7.513 0 0-.568 1.09-.062 2.32.33.806.75 1.46 2.84 2.367 2.81 1.405 4.356 2.72 4.623 2.984.267.264.337.46.337.46.114.21.206.574.206.81v.45c0 .473-.404.857-.902.857h-7.273a1.73 1.73 0 0 0-.124-.326s-.2-.462-.59-.847c-.19-.19-.828-.744-1.91-1.502zm-5.273-3.045c1.78-.827 2.168-1.45 2.48-2.208.505-1.23-.063-2.32-.063-2.32-1.714-2.587-1.92-4.28-1.35-7.513.367-2.08 2.952-2.91 4.206-2.91v17.993c-1.128-.79-2.74-1.803-4.834-2.85a23.846 23.846 0 0 1-.44-.195zM24.81 43V17c1.488 0 4.554 1.046 4.99 3.66.677 4.068.43 6.196-1.6 9.45 0 0-.676 1.37-.076 2.918.394 1.013.89 1.837 3.37 2.977 3.334 1.767 5.167 3.42 5.484 3.753.317.333.452.675.452.675.106.212.192.577.192.815v.89a.858.858 0 0 1-.85.862H24.81zm0 0H12.85a.858.858 0 0 1-.85-.863v-.89c0-.237.085-.602.19-.814 0 0 .136-.342.453-.675.317-.332 2.15-1.986 5.485-3.753 2.478-1.14 2.975-1.964 3.37-2.977.6-1.548-.076-2.918-.076-2.918-2.032-3.254-2.278-5.382-1.6-9.45.435-2.614 3.5-3.66 4.988-3.66v26z" fill="#FFF" mask="url(#bjb)"/></g></svg><svg width="40" height="40" viewBox="0 0 40 40" id="project|images|icons|AppNotice.svg" x="558" y="160" xmlns="http://www.w3.org/2000/svg"><g fill="none" fill-rule="evenodd"><path fill="#F7B51C" d="M0 0h40v40H0z"/><path d="M18 23.09h-1.296l.385 7.486c.19 1.396-2.18 1.04-2.18 1.04a.592.592 0 0 1-.526-.545l-.43-7.98h-2.417v-.025a5 5 0 0 1 0-9.97v-.018H18V23.09zm1 .02V13.053c3.264-.196 7.69-1.58 10.26-3.256l.91-.596c.447-.29.83-.092.83.46v16.343c0 .546-.39.774-.87.496l-.698-.405C26.777 24.557 22.28 23.29 19 23.11z" fill="#FFF"/></g></svg><svg width="24" height="24" viewBox="0 0 24 24" id="project|images|icons|AppPermissionAnnouncement.svg" y="557" xmlns="http://www.w3.org/2000/svg"><g fill="none" fill-rule="evenodd"><path fill="#F7B51C" d="M0 0h24v24H0z"/><path d="M11 13.97c-.334-.036-.66-.064-.976-.084l.23 4.46c-.11 1.154-1.607.598-1.607.598l-.274-5.09h-1.45v-.015a3 3 0 0 1 0-5.985v-.01h2.123c.604 0 1.264-.05 1.954-.145v6.27zm1 .127V7.54c2.526-.47 5.26-1.433 7-2.545V16c-1.583-.762-4.408-1.525-7-1.903z" fill="#FFF"/></g></svg><svg width="24" height="24" viewBox="0 0 24 24" id="project|images|icons|AppPermissionApproval.svg" x="470" y="395" xmlns="http://www.w3.org/2000/svg"><g fill="none" fill-rule="evenodd"><path fill="#F7B51C" d="M0 0h24v24H0z"/><path d="M6.92 13.92a.923.923 0 0 0-.92.922v2.21h12v-2.21a.918.918 0 0 0-.92-.922h-3.388l.883-5.367c.122-.512.194-.92.194-1.168a2.77 2.77 0 0 0-5.54 0c0 .252.075.67.2 1.196l.88 5.34H6.92zM7 18h9.99l.01.487c0 .283-.19.513-.427.513H7.438c-.236 0-.427-.228-.427-.513L7 18z" fill="#FFF"/></g></svg><svg width="24" height="24" viewBox="0 0 24 24" id="project|images|icons|AppPermissionAttendance.svg" x="134" y="244" xmlns="http://www.w3.org/2000/svg"><defs><path id="bna" d="M0 0h24v24H0z"/></defs><g fill="none" fill-rule="evenodd"><use fill="#F5B73E" xlink:href="#bna"/><use fill="#F7B51C" xlink:href="#bna"/><path d="M6.498 12.298A5.877 5.877 0 0 1 6 9.933c0-3.502 2.686-6.24 6.122-6.24C15.314 3.693 18 6.43 18 9.933a5.892 5.892 0 0 1-.074.93 5.99 5.99 0 0 1-.635 1.88c-1.57 3.38-5.285 7.427-5.285 7.427S7.912 15.766 6.5 12.297zM12.07 12c1.204 0 2.237-1.033 2.237-2.308 0-1.274-1.033-2.307-2.237-2.307-1.344 0-2.377 1.033-2.377 2.307 0 1.275 1.033 2.308 2.377 2.308z" fill="#FFF"/></g></svg><svg width="24" height="24" viewBox="0 0 24 24" id="project|images|icons|AppPermissionCard.svg" x="348" y="174" xmlns="http://www.w3.org/2000/svg"><g fill="none" fill-rule="evenodd"><path fill="#FF9500" d="M0 0h24v24H0z"/><path d="M4 6.996C4 6.446 4.445 6 5 6h14c.552 0 1 .445 1 .996v9.008c0 .55-.445.996-1 .996H5c-.552 0-1-.445-1-.996V6.996zm3.385 3.266a.923.923 0 1 0 0-1.846.923.923 0 0 0 0 1.846zM10 9v1h6V9h-6zm0 2v1h6v-1h-6zm0 2v1h6v-1h-6z" fill="#FFF"/></g></svg><svg width="24" height="24" viewBox="0 0 24 24" id="project|images|icons|AppPermissionColleague.svg" x="350" y="268" xmlns="http://www.w3.org/2000/svg"><g fill="none" fill-rule="evenodd"><path fill="#FF776E" d="M0 0h24v24H0z"/><path d="M12.486 16.167a2.196 2.196 0 0 0-.27-.045 6.944 6.944 0 0 1-3.87-2.153.54.54 0 1 0-.688.825l.156.15a6.95 6.95 0 0 1 1.91 3.562 2.21 2.21 0 0 0 .074.458 2.26 2.26 0 1 0 2.688-2.8m7.482-5.77a2.26 2.26 0 0 0-3.846 1.36 6.947 6.947 0 0 1-2.153 3.87.54.54 0 1 0 .825.69 6.944 6.944 0 0 1 3.712-2.065 2.21 2.21 0 0 0 .458-.076 2.26 2.26 0 0 0 1.002-3.778m-9.572-6.392a2.26 2.26 0 0 0 1.36 3.846 6.943 6.943 0 0 1 3.87 2.153.54.54 0 1 0 .69-.827 6.947 6.947 0 0 1-2.066-3.713 2.094 2.094 0 0 0-.077-.458 2.26 2.26 0 0 0-3.778-1.002m-2.565 8.35c.01-.047.015-.093.02-.138a6.953 6.953 0 0 1 2.153-3.868.54.54 0 1 0-.827-.69A6.942 6.942 0 0 1 5.463 9.72a2.237 2.237 0 0 0-.457.078A2.26 2.26 0 1 0 7.83 12.35" fill="#FFF"/></g></svg><svg width="24" height="24" viewBox="0 0 24 24" id="project|images|icons|AppPermissionContact.svg" x="206" y="244" xmlns="http://www.w3.org/2000/svg"><defs><path id="bqa" d="M0 0h24v24H0z"/></defs><g fill="none" fill-rule="evenodd"><use fill="#008BFF" xlink:href="#bqa"/><use fill-opacity=".15" fill="#FFF" xlink:href="#bqa"/><path d="M13.888 18.424c1.984-.587 3.552-2.075 4.18-3.962h-.475a.96.96 0 0 1-.184.017h-.456a.5.5 0 0 1-.5-.5v-2.71a.5.5 0 0 1 .5-.5h.454c.11 0 .218.02.317.055v-.11c0-2.966-2.566-5.374-5.727-5.374-3.163 0-5.727 2.406-5.727 5.374v.11a.953.953 0 0 1 .32-.054h.454a.5.5 0 0 1 .5.5v2.707a.5.5 0 0 1-.5.5H6.59a.96.96 0 0 1-.183-.018H5.292C5 14.153 5 13.855 5 13.395v.003-2.685C5 7.005 8.133 4 12 4c3.866 0 7 3.012 7 6.716v2.68c0 .458-.14.755-.29 1.06-.676 2.244-2.48 4.01-4.766 4.66v.384a.5.5 0 0 1-.5.5h-2.888a.5.5 0 0 1-.5-.5v-.846a.5.5 0 0 1 .5-.5h2.888a.5.5 0 0 1 .444.27zm-2.083-1.09c-1.094 0-2.104-.46-2.916-1.232v-1.23h.343c.686.765 1.586 1.23 2.57 1.23.986 0 1.887-.464 2.573-1.23h.345v1.23c-.812.773-1.823 1.23-2.916 1.23z" fill="#FFF"/></g></svg><svg width="24" height="24" viewBox="0 0 24 24" id="project|images|icons|AppPermissionCustom.svg" x="341" y="118" xmlns="http://www.w3.org/2000/svg"><g fill="none" fill-rule="evenodd"><rect stroke="#AAB5C2" fill="#CAD1D7" opacity=".7" x=".5" y=".5" width="23" height="23" rx="2"/><path d="M11.455 11.455v-7.09h1.09v7.09h7.09v1.09h-7.09v7.09h-1.09v-7.09h-7.09v-1.09h7.09z" fill="#A1AEBC" opacity=".6"/></g></svg><svg width="24" height="24" viewBox="0 0 24 24" id="project|images|icons|AppPermissionMail.svg" x="244" y="206" xmlns="http://www.w3.org/2000/svg"><g fill="none" fill-rule="evenodd"><path fill="#4794E8" d="M0 0h24v24H0z"/><path d="M4 7.002A1 1 0 0 1 5 6h14c.552 0 1 .456 1 1.002v9.996A1 1 0 0 1 19 18H5c-.552 0-1-.456-1-1.002V7.002zm2 1.653v.87l5.222 3.07c.478.283 1.246.277 1.725-.006l5.18-3.067-.01-.87-5.146 2.55c-.493.246-1.29.245-1.786 0L6 8.655z" fill="#FFF"/></g></svg><svg width="24" height="24" viewBox="0 0 24 24" id="project|images|icons|AppPermissionPhone.svg" x="341" y="142" xmlns="http://www.w3.org/2000/svg"><g fill="none" fill-rule="evenodd"><path fill="#3DCF52" d="M0 0h24v24H0z"/><path d="M18.685 18.027l-.495.495c-1.368 1.368-5.32-.37-8.83-3.88S4.113 7.18 5.48 5.812l.496-.493c.565-.567 1.732-.92 1.732-.92L9.79 7.61c.3.463.31 1.22.016 1.698l-.3.485c-.217.354-.18.903.083 1.224 0 0 .92 1.15 1.666 1.894.74.74 1.725 1.51 1.725 1.51.323.26.875.296 1.23.078l.48-.295c.47-.29 1.237-.297 1.72-.017l3.34 1.937s-.505 1.345-1.066 1.906z" fill="#FFF"/></g></svg><svg width="24" height="24" viewBox="0 0 24 24" id="project|images|icons|AppPermissionWirelessProjection.svg" x="244" y="158" xmlns="http://www.w3.org/2000/svg"><g fill="none" fill-rule="evenodd"><path fill="#47B3E1" d="M0 0h24v24H0z"/><path d="M16.747 16.615l-1.582-1.846h2.373V8.306H6.462v6.46h2.373l-1.582 1.847H5.308a.692.692 0 0 1-.693-.692v-8.77c0-.382.31-.69.693-.69h13.384c.383 0 .693.31.693.69v8.77c0 .382-.31.692-.693.692h-1.945zM12 12.923l3.692 4.615H8.308L12 12.923z" fill="#FFF"/></g></svg><svg width="24" height="24" viewBox="0 0 24 24" id="project|images|icons|AppPermissionWorknote.svg" x="158" y="244" xmlns="http://www.w3.org/2000/svg"><g fill="none" fill-rule="evenodd"><path fill="#F7B51C" d="M0 0h24v24H0z"/><path d="M5 5c0-.552.45-1 1.007-1h11.986C18.55 4 19 4.445 19 5v14c0 .552-.45 1-1.007 1H6.007A1.002 1.002 0 0 1 5 19V5z" fill="#FFF"/><rect fill="#F7B51C" x="7" y="6.692" width="2.308" height="2.308" rx="1.154"/><path fill="#F7B51C" d="M7 11h8v1H7zm0 2h4v1H7zm0 2h5v1H7z"/></g></svg><svg width="40" height="40" viewBox="0 0 40 40" id="project|images|icons|AppPhone.svg" x="304" y="507" xmlns="http://www.w3.org/2000/svg"><g fill="none" fill-rule="evenodd"><path fill="#3DCF52" d="M0 0h40v40H0z"/><path d="M31.14 30.045l-.824.825c-2.28 2.28-8.868-.615-14.717-6.464-5.85-5.85-8.746-12.44-6.467-14.718l.825-.825c.942-.942 2.887-1.53 2.887-1.53l3.83 5.905c.303.465.313 1.222.018 1.7l-.85 1.382c-.363.59-.303 1.505.137 2.04 0 0 1.537 1.914 2.78 3.157 1.233 1.233 2.875 2.514 2.875 2.514.536.437 1.456.494 2.047.13l1.365-.84c.468-.29 1.236-.297 1.71-.023l6.157 3.572s-.84 2.24-1.776 3.176z" fill="#FFF"/></g></svg><svg width="20" height="20" viewBox="0 0 20 20" id="project|images|icons|AppSmallApproval.svg" x="598" y="60" xmlns="http://www.w3.org/2000/svg"><g fill="none" fill-rule="evenodd"><path fill="#F7B51C" d="M0 0h20v20H0z"/><path d="M5.766 11.6a.77.77 0 0 0-.766.768V14h10v-1.632a.765.765 0 0 0-.766-.768H11.41l.736-4.472c.1-.427.162-.768.162-.974a2.308 2.308 0 1 0-4.616 0c0 .21.063.56.168.997l.732 4.45H5.766zM6 15h7.99l.01.487c0 .283-.153.513-.342.513H6.35c-.19 0-.34-.228-.34-.513L6 15z" fill="#FFF"/></g></svg><svg width="20" height="20" viewBox="0 0 20 20" id="project|images|icons|AppSmallAttendance.svg" x="96" y="557" xmlns="http://www.w3.org/2000/svg"><defs><path id="bya" d="M0 0h20v20H0z"/></defs><g fill="none" fill-rule="evenodd"><use fill="#F5B73E" xlink:href="#bya"/><use fill="#F7B51C" xlink:href="#bya"/><path d="M5.415 10.248A4.898 4.898 0 0 1 5 8.278c0-2.92 2.24-5.2 5.102-5.2 2.66 0 4.898 2.28 4.898 5.2 0 .192-.01.382-.033.57a4.99 4.99 0 0 1-.558 1.77C13.1 13.435 10 16.808 10 16.808s-3.41-3.67-4.588-6.56zM10.058 10c1.004 0 1.865-.86 1.865-1.923s-.86-1.923-1.865-1.923c-1.12 0-1.98.86-1.98 1.923 0 1.062.86 1.923 1.98 1.923z" fill="#FFF"/></g></svg><svg width="20" height="20" viewBox="0 0 20 20" id="project|images|icons|AppSmallCard.svg" x="156" y="557" xmlns="http://www.w3.org/2000/svg"><g fill="none" fill-rule="evenodd"><path fill="#FF9500" d="M0 0h20v20H0z"/><path d="M3 5.8a.8.8 0 0 1 .793-.8h12.414a.8.8 0 0 1 .793.8v7.4a.8.8 0 0 1-.793.8H3.793A.8.8 0 0 1 3 13.2V5.8zm3.154 2.75a.77.77 0 1 0 0-1.538.77.77 0 0 0 0 1.538zM8 7v1h5V7H8zm0 2v1h5V9H8zm0 2v1h5v-1H8z" fill="#FFF"/></g></svg><svg width="20" height="20" viewBox="0 0 20 20" id="project|images|icons|AppSmallColleague.svg" x="598" y="40" xmlns="http://www.w3.org/2000/svg"><g fill="none" fill-rule="evenodd"><path fill="#FF776E" d="M0 0h20v20H0z"/><path d="M10.405 13.473a1.83 1.83 0 0 0-.226-.038 5.787 5.787 0 0 1-3.225-1.794.45.45 0 1 0-.574.69l.13.127a5.79 5.79 0 0 1 1.59 2.968 1.84 1.84 0 0 0 .064.38 1.883 1.883 0 1 0 2.24-2.33m6.235-4.81a1.884 1.884 0 0 0-3.206 1.133 5.79 5.79 0 0 1-1.794 3.224.45.45 0 1 0 .69.575 5.786 5.786 0 0 1 3.094-1.72 1.84 1.84 0 0 0 .38-.064 1.884 1.884 0 0 0 .836-3.147m-7.977-5.33a1.884 1.884 0 0 0 1.135 3.206 5.786 5.786 0 0 1 3.223 1.794.45.45 0 1 0 .576-.69 5.79 5.79 0 0 1-1.72-3.094 1.745 1.745 0 0 0-.063-.38 1.884 1.884 0 0 0-3.15-.835m-2.136 6.956c.006-.038.012-.076.016-.114a5.794 5.794 0 0 1 1.794-3.225.45.45 0 1 0-.69-.575A5.785 5.785 0 0 1 4.552 8.1a1.864 1.864 0 0 0-.38.065 1.884 1.884 0 1 0 2.354 2.128" fill="#FFF"/></g></svg><svg width="20" height="20" viewBox="0 0 20 20" id="project|images|icons|AppSmallExmail.svg" x="116" y="557" xmlns="http://www.w3.org/2000/svg"><g fill="none" fill-rule="evenodd"><path fill="#4794E8" d="M0 0h20v20H0z"/><path d="M3 5.818C3 5.366 3.36 5 3.813 5h12.374a.81.81 0 0 1 .813.818v8.364c0 .452-.36.818-.813.818H3.813A.81.81 0 0 1 3 14.182V5.818zm2 1.394v.725l4.362 2.566c.388.228 1.02.23 1.406 0l4.337-2.566-.007-.725-4.31 2.136c-.39.194-1.046.197-1.447 0L5 7.212z" fill="#FFF"/></g></svg><svg width="20" height="20" viewBox="0 0 20 20" id="project|images|icons|AppSmallNotice.svg" x="176" y="557" xmlns="http://www.w3.org/2000/svg"><g fill="none" fill-rule="evenodd"><path fill="#F7B51C" d="M0 0h20v20H0z"/><path d="M9.333 6.676v5.828h-1.21l.818 3.055-.78.207a.818.818 0 0 1-1-.56L6.4 12.503h-.08V12.5H6.25a2.917 2.917 0 1 1 .235-5.823h2.848zm.332-.01c1.766-.096 4.152-.927 5.495-1.938l.03-.024c.356-.267.646-.12.646.332v8.353c0 .46-.324.646-.724.44l.337.173c-1.36-.707-3.557-1.3-5.284-1.46V6.668h-.502z" fill="#FFF"/></g></svg><svg width="20" height="20" viewBox="0 0 20 20" id="project|images|icons|AppSmallPhone.svg" x="196" y="557" xmlns="http://www.w3.org/2000/svg"><g fill="none" fill-rule="evenodd"><path fill="#3DCF52" d="M0 0h20v20H0z"/><path d="M15.57 15.023l-.412.412c-1.14 1.14-4.434-.308-7.36-3.232-2.923-2.925-4.37-6.22-3.23-7.36l.412-.41c.47-.473 1.444-.767 1.444-.767l1.745 2.69c.243.378.253.99.016 1.374l-.265.43a.94.94 0 0 0 .07 1.02s.77.957 1.39 1.58a18.436 18.436 0 0 0 1.437 1.255c.268.218.728.247 1.024.065l.426-.262c.377-.232.994-.24 1.375-.017l2.817 1.635s-.42 1.12-.887 1.59z" fill="#FFF"/></g></svg><svg width="20" height="20" viewBox="0 0 20 20" id="project|images|icons|AppSmallWirelessProjection.svg" x="598" xmlns="http://www.w3.org/2000/svg"><g fill="none" fill-rule="evenodd"><path fill="#47B3E1" d="M0 0h20v20H0z"/><path d="M13.956 13.846l-1.32-1.538h1.98V6.923h-9.23v5.385h1.977l-1.32 1.538h-1.62a.577.577 0 0 1-.577-.577V5.96c0-.32.258-.577.577-.577h11.154c.32 0 .577.258.577.577v7.307a.577.577 0 0 1-.577.576h-1.62zM10 10.77l3.077 3.846H6.923L10 10.77z" fill="#FFF"/></g></svg><svg width="60" height="60" viewBox="0 0 60 60" id="project|images|icons|AppSystemLogBig.svg" x="498" y="120" xmlns="http://www.w3.org/2000/svg"><defs><path id="cfa" d="M0 0h60v60H0z"/></defs><g fill="none" fill-rule="evenodd"><mask id="cfb" fill="#fff"><use xlink:href="#cfa"/></mask><use fill="#55D041" xlink:href="#cfa"/><use fill-opacity=".4" fill="#008BFF" xlink:href="#cfa"/><path d="M28 16h4a1 1 0 0 1 1 1v26a1 1 0 0 1-1 1h-4a1 1 0 0 1-1-1V17a1 1 0 0 1 1-1zm-10 6h4a1 1 0 0 1 1 1v20a1 1 0 0 1-1 1h-4a1 1 0 0 1-1-1V23a1 1 0 0 1 1-1zm20 6h4a1 1 0 0 1 1 1v14a1 1 0 0 1-1 1h-4a1 1 0 0 1-1-1V29a1 1 0 0 1 1-1z" fill="#FFF" mask="url(#cfb)"/></g></svg><svg width="60" height="60" viewBox="0 0 60 60" id="project|images|icons|AppWeekSummaryBig.svg" x="498" y="60" xmlns="http://www.w3.org/2000/svg"><defs><rect id="cga" width="60" height="60" rx="4"/></defs><g fill="none" fill-rule="evenodd"><mask id="cgb" fill="#fff"><use xlink:href="#cga"/></mask><use fill="#D8D8D8" xlink:href="#cga"/><g mask="url(#cgb)"><path fill="#46B2E0" d="M0 0h60v60H0z"/><path d="M18.2 16h23.877c.51 0 .923.413.923.923V44.8a1.2 1.2 0 0 1-1.2 1.2H18.2a1.2 1.2 0 0 1-1.2-1.2V17.2a1.2 1.2 0 0 1 1.2-1.2zm3.8 9v2h10v-2H22zm0 5v2h16v-2H22zm0 5v2h16v-2H22z" fill="#FFF"/><path d="M23.923 13h12.154c.51 0 .923.413.923.923v4.154c0 .51-.413.923-.923.923H23.923a.923.923 0 0 1-.923-.923v-4.154c0-.51.413-.923.923-.923z" fill="#46B2E0"/><path d="M27.264 15a2.827 2.827 0 0 1 5.472 0H35v2H25v-2h2.264z" fill="#FFF"/></g></g></svg><svg width="40" height="40" viewBox="0 0 40 40" id="project|images|icons|AppWirelessProjection.svg" x="384" y="455" xmlns="http://www.w3.org/2000/svg"><g fill="none" fill-rule="evenodd"><path fill="#47B3E1" d="M0 0h40v40H0z"/><path d="M27.912 27.692l-2.637-3.077h3.956v-10.77H10.77v10.77h3.955l-2.637 3.077H8.846a1.154 1.154 0 0 1-1.154-1.154V11.923c0-.637.517-1.154 1.154-1.154h22.308c.637 0 1.154.515 1.154 1.152v14.615c0 .638-.517 1.154-1.154 1.154h-3.242zM20 21.538l6.154 7.693H13.846L20 21.54z" fill="#FFF"/></g></svg><svg width="60" height="60" viewBox="0 0 60 60" id="project|images|icons|AppWirelessProjectionBig.svg" x="498" xmlns="http://www.w3.org/2000/svg"><g fill="none" fill-rule="evenodd"><path fill="#47B3E1" d="M0 0h60v60H0z"/><path d="M41.868 41.538l-3.956-4.615h5.934V20.77H16.154v16.154h5.934l-3.956 4.615H13.27a1.73 1.73 0 0 1-1.73-1.73V17.883c0-.956.773-1.73 1.73-1.73h33.46c.957 0 1.73.774 1.73 1.73v21.923a1.73 1.73 0 0 1-1.73 1.73h-4.86zM30 32.308l9.23 11.538H20.77L30 32.308z" fill="#FFF"/></g></svg><svg width="40" height="40" viewBox="0 0 40 40" id="project|images|icons|AppWorknote.svg" x="424" y="455" xmlns="http://www.w3.org/2000/svg"><g fill="none" fill-rule="evenodd"><path fill="#F7B51C" d="M0 0h40v40H0z"/><path d="M9 8.49C9 7.67 9.67 7 10.495 7h19.01C30.33 7 31 7.67 31 8.49v23.02c0 .823-.67 1.49-1.495 1.49h-19.01A1.494 1.494 0 0 1 9 31.51V8.49zm3.632 4.85c0 1.07.86 1.923 1.923 1.923 1.07 0 1.923-.86 1.923-1.923 0-1.07-.86-1.923-1.923-1.923-1.07 0-1.923.86-1.923 1.923zM13 18v2h13v-2H13zm0 4v2h7v-2h-7zm0 4v2h8v-2h-8z" fill="#FFF"/></g></svg><svg width="60" height="60" viewBox="0 0 60 60" id="project|images|icons|AppWorknoteBig.svg" x="410" y="395" xmlns="http://www.w3.org/2000/svg"><g fill="none" fill-rule="evenodd"><path fill="#F7B51C" d="M0 0h60v60H0z"/><rect fill="#FFF" x="15" y="11" width="30" height="38" rx="3"/><rect fill="#F7B51C" x="20" y="17" width="5" height="5" rx="2.5"/><path fill="#F7B51C" d="M20 26h19v2H20zm0 5h11v2H20zm0 5h12v2H20z"/></g></svg><svg width="15" height="15" viewBox="0 0 15 15" id="project|images|icons|ArrowDownWithCircle.svg" x="598" y="328" xmlns="http://www.w3.org/2000/svg"><g transform="rotate(-180 7.5 7.5)" fill="none" fill-rule="evenodd"><rect fill="#5192D6" x="5" y="8" width="2" height="2" rx="1"/><circle stroke="#5184B8" fill="#FFF" cx="7.5" cy="7.5" r="7"/><path d="M7 9.322v-4.82C7 4.226 7.232 4 7.5 4c.276 0 .5.233.5.503v4.812l1.368-1.368a.508.508 0 0 1 .71-.005.5.5 0 0 1-.003.712l-2.2 2.2a.51.51 0 0 1-.472.136.515.515 0 0 1-.276-.14L4.87 8.63a.505.505 0 0 1-.004-.723l-.017.017a.52.52 0 0 1 .727 0L7 9.32z" fill="#5184B8"/></g></svg><svg width="15" height="15" viewBox="0 0 15 15" id="project|images|icons|ArrowUpWithCircle.svg" x="598" y="313" xmlns="http://www.w3.org/2000/svg"><g fill="none" fill-rule="evenodd"><rect fill="#5192D6" x="5" y="8" width="2" height="2" rx="1"/><circle stroke="#5184B8" fill="#FFF" cx="7.5" cy="7.5" r="7"/><path d="M7 9.322v-4.82C7 4.226 7.232 4 7.5 4c.276 0 .5.233.5.503v4.812l1.368-1.368a.508.508 0 0 1 .71-.005.5.5 0 0 1-.003.712l-2.2 2.2a.51.51 0 0 1-.472.136.515.515 0 0 1-.276-.14L4.87 8.63a.505.505 0 0 1-.004-.723l-.017.017a.52.52 0 0 1 .727 0L7 9.32z" fill="#5184B8"/></g></svg><svg width="32" height="36" viewBox="0 0 32 36" id="project|images|icons|AuthStepBg.svg" x="558" y="516" xmlns="http://www.w3.org/2000/svg"><path d="M14.273.423c.954-.564 2.5-.565 3.454 0l12.546 7.413C31.227 8.4 32 9.76 32 10.856V25.04c0 1.103-.772 2.454-1.727 3.02l-12.546 7.41c-.954.563-2.5.564-3.454 0L1.727 28.06C.773 27.496 0 26.137 0 25.04V10.855C0 9.75.772 8.4 1.727 7.835L14.273.425z" fill="#BCBCBC" fill-rule="evenodd"/></svg><svg width="32" height="36" viewBox="0 0 32 36" id="project|images|icons|AuthStepBgHighlighted.svg" x="558" y="480" xmlns="http://www.w3.org/2000/svg"><path d="M14.273.423c.954-.564 2.5-.565 3.454 0l12.546 7.413C31.227 8.4 32 9.76 32 10.856V25.04c0 1.103-.772 2.454-1.727 3.02l-12.546 7.41c-.954.563-2.5.564-3.454 0L1.727 28.06C.773 27.496 0 26.137 0 25.04V10.855C0 9.75.772 8.4 1.727 7.835L14.273.425z" fill="#5B89BC" fill-rule="evenodd"/></svg><svg width="14" height="14" viewBox="0 0 14 14" id="project|images|icons|BlueArrowRightWithCircle.svg" x="598" y="413" xmlns="http://www.w3.org/2000/svg"><g stroke="#4475A7" fill="none" fill-rule="evenodd"><circle cx="7" cy="7" r="6.188"/><path d="M6.12 4.292l2.533 2.884L6.12 9.708"/></g></svg><svg width="26" height="26" viewBox="0 0 26 26" id="project|images|icons|BlueSucc.svg" x="472" y="356" xmlns="http://www.w3.org/2000/svg"><g fill="none" fill-rule="evenodd"><circle fill="#008BFF" cx="13" cy="13" r="13"/><path d="M10.333 16.333l-4-4L5 13.667 10.333 19 21 8.333 19.667 7z" fill="#FFF"/></g></svg><svg width="52" height="40" viewBox="0 0 52 40" id="project|images|icons|BlueWeb.svg" x="498" y="392" xmlns="http://www.w3.org/2000/svg"><g fill="#FBFDFF" stroke="#88B9EA" fill-rule="evenodd"><path d="M20.5 33.5v2.89l-4 1v2.11h19v-2.11l-4-1V33.5h-11z"/><rect x=".5" y=".5" width="51" height="33" rx="2"/><path d="M.5 26.5v5.502c0 .832.67 1.498 1.507 1.498h47.986c.83 0 1.507-.673 1.507-1.498V26.5H.5z"/></g></svg><svg width="24" height="24" viewBox="0 0 24 24" id="project|images|icons|CheckExternal.svg" x="244" y="182" xmlns="http://www.w3.org/2000/svg"><g fill="none" fill-rule="evenodd"><path d="M0 0h24v24H0z"/><circle cx="10.5" cy="7.5" r="3" stroke="#000"/><path fill="#000" fill-rule="nonzero" d="M11.452 12.15a3.972 3.972 0 0 0-.35.95A6 6 0 0 0 4 19H3a7 7 0 0 1 8.45-6.85z"/><circle cx="15" cy="14" r="2.5" stroke="#000"/><path stroke="#191919" d="M17 16l2.5 2.5"/></g></svg><svg width="44" height="49" viewBox="0 0 44 49" id="project|images|icons|CorpAuth.svg" x="168" y="507" xmlns="http://www.w3.org/2000/svg"><g fill="none" fill-rule="evenodd"><path d="M18.563.84c1.898-1.122 4.984-1.118 6.875 0l15.125 8.937C42.46 10.9 44 13.607 44 15.81v16.996c0 2.21-1.547 4.916-3.438 6.034l-15.124 8.937c-1.9 1.122-4.985 1.117-6.875 0L3.438 38.84C1.538 37.718 0 35.01 0 32.806V15.81c0-2.21 1.547-4.917 3.438-6.034L18.562.84z" fill="#5B89BC"/><path d="M16.113 23.17a1.99 1.99 0 0 0-2.824.01l.125-.127a2.005 2.005 0 0 0 .002 2.834l5.346 5.346 1.352 1.352L33.583 19.12c.78-.78.786-2.04-.003-2.83l.127.127a2.007 2.007 0 0 0-2.837.004L20.116 27.177l-4.003-4.004z" fill="#FFF"/></g></svg><svg width="48" height="54" viewBox="0 0 48 54" id="project|images|icons|CorpAuthFail.svg" x="498" y="338" xmlns="http://www.w3.org/2000/svg"><g fill="none" fill-rule="evenodd"><path d="M20.56.74c1.9-1.134 4.978-1.135 6.88 0l17.12 10.22c1.9 1.135 3.44 3.84 3.44 6.06v19.538c0 2.213-1.538 4.924-3.44 6.06l-17.12 10.22c-1.9 1.134-4.977 1.135-6.878 0L3.44 42.618C1.54 41.482 0 38.778 0 36.558V17.02c0-2.212 1.538-4.924 3.44-6.058L20.56.74z" fill="#E05454"/><path d="M21.19 15.953A2.74 2.74 0 0 1 23.955 13h.368c1.63 0 2.87 1.32 2.763 2.953l-.874 13.536c-.105 1.63-1.52 2.95-2.074 2.95 0 0-.35 0 0 0-1.04 0-1.967-1.32-2.072-2.952l-.874-13.537zM24.14 41C22.404 41 21 39.575 21 37.818s1.405-3.182 3.138-3.182c1.733 0 3.138 1.425 3.138 3.182S25.87 41 24.138 41z" fill="#FFF"/></g></svg><svg width="48" height="54" viewBox="0 0 48 54" id="project|images|icons|CorpAuthInfo.svg" x="498" y="284" xmlns="http://www.w3.org/2000/svg"><g fill="none" fill-rule="evenodd"><path d="M20.56.85c1.9-1.133 4.978-1.134 6.88 0l17.12 10.223C46.46 12.206 48 14.91 48 17.13v19.538c0 2.213-1.538 4.925-3.44 6.06l-17.12 10.22c-1.9 1.134-4.977 1.135-6.878 0L3.44 42.73C1.54 41.594 0 38.888 0 36.668V17.13c0-2.212 1.538-4.923 3.44-6.06L20.56.853z" fill="#3F6E9F"/><path d="M24.245 16.947c-1.604 0-2.905-1.33-2.905-2.973 0-1.643 1.3-2.974 2.905-2.974 1.604 0 2.904 1.33 2.904 2.974 0 1.642-1.3 2.973-2.906 2.973zm-4.853 6.437c-.983-.48-1.064-1.39-.075-1.882 0 0-1.45.352 3.928-1.532 5.378-1.883 3.004 16.44 3.004 16.44l3.334-.77s-1.485 5.024-5.47 5.38c-3.986.357-2.116-9.494-2.05-13.28.063-3.784-2.673-4.356-2.673-4.356z" fill="#FFF"/></g></svg><svg width="48" height="54" viewBox="0 0 48 54" id="project|images|icons|CorpAuthSucc.svg" x="498" y="230" xmlns="http://www.w3.org/2000/svg"><g fill="none" fill-rule="evenodd"><path d="M20.56.74c1.9-1.134 4.978-1.135 6.88 0l17.12 10.22c1.9 1.135 3.44 3.84 3.44 6.06v19.538c0 2.213-1.538 4.924-3.44 6.06l-17.12 10.22c-1.9 1.134-4.977 1.135-6.878 0L3.44 42.618C1.54 41.482 0 38.778 0 36.558V17.02c0-2.212 1.538-4.924 3.44-6.058L20.56.74z" fill="#2EC762"/><path d="M17.456 25.413a1.977 1.977 0 0 0-2.82-.008l-.14.14a2.023 2.023 0 0 0 0 2.84l5.973 6.035 1.474 1.49 14.82-14.97c.78-.79.787-2.06.006-2.85l-.137-.14a1.977 1.977 0 0 0-2.815.004L21.945 29.947l-4.49-4.534z" fill="#FFF"/></g></svg><svg width="40" height="40" viewBox="0 0 40 40" id="project|images|icons|CorpHomeXcx.svg" x="464" y="455" xmlns="http://www.w3.org/2000/svg"><g fill="none" fill-rule="evenodd"><path d="M0 0h40v40H0z" fill="#4898EF"/><path stroke="#FFF" stroke-width="1.8" d="M11.9 13.4h16.2v13.2H11.9z"/><path fill="#FFF" d="M11 12.5l10.5-2.956V30.5l-10.5-3z"/></g></svg><svg width="60" height="60" viewBox="0 0 60 60" id="project|images|icons|CorpHomeXcxBig.svg" x="350" y="395" xmlns="http://www.w3.org/2000/svg"><g fill="none" fill-rule="evenodd"><path d="M0 0h60v60H0z" fill="#4898EF"/><path stroke="#FFF" stroke-width="2.8" d="M17.4 19.614h25.2v20.77H17.4z"/><path fill="#FFF" d="M16 18.214l16.333-4.646V46.5L16 41.786z"/></g></svg><svg width="24" height="24" viewBox="0 0 24 24" id="project|images|icons|CustomerKefu.svg" x="470" y="419" xmlns="http://www.w3.org/2000/svg"><defs><path id="cza" d="M0 0h24v20H0z"/></defs><g fill="none" fill-rule="evenodd" transform="translate(0 -1)"><mask id="czb" fill="#fff"><use xlink:href="#cza"/></mask><circle cx="12" cy="20" r="6.5" stroke="#2D2F33" mask="url(#czb)"/><circle cx="12" cy="9" r="2.5" stroke="#2D2F33" mask="url(#czb)"/></g></svg><svg width="24" height="24" viewBox="0 0 24 24" id="project|images|icons|CustomerReDispatch.svg" x="72" y="557" xmlns="http://www.w3.org/2000/svg"><g fill="none" fill-rule="evenodd" stroke="#2D2F33" transform="translate(5 5)"><circle cx="7" cy="8" r="6.5"/><circle cx="7" cy="1.5" r="1.5" fill="#FFF"/><circle cx="1" cy="11" r="1.5" fill="#FFF"/><circle cx="13" cy="11" r="1.5" fill="#FFF"/></g></svg><svg width="40" height="40" viewBox="0 0 40 40" id="project|images|icons|DepartmentLarge.svg" x="504" y="455" xmlns="http://www.w3.org/2000/svg"><g fill="none" fill-rule="evenodd"><path fill="#7DA4D1" d="M0 0h40v40H0z"/><path d="M9 15h20.998A1 1 0 0 1 31 16.007v11.986C31 28.55 30.55 29 29.998 29H10.002A1 1 0 0 1 9 27.993V15zm1.002-4h9.65l1.92 3H9v-2a.998.998 0 0 1 1.002-1z" fill="#FFF"/></g></svg><svg width="24" height="24" viewBox="0 0 24 24" id="project|images|icons|DistributeExternal.svg" x="182" y="244" xmlns="http://www.w3.org/2000/svg"><path fill="none" stroke="#000" d="M9 18.5a4 4 0 0 1 4-4h2.5v3l5-4.5-5-4.5v3h-8v3l-5-4.5 5-4.5v3H10a4 4 0 0 0 4-4"/></svg><svg width="24" height="24" viewBox="0 0 24 24" id="project|images|icons|DocumentHandle.svg" x="348" y="198" xmlns="http://www.w3.org/2000/svg"><g transform="translate(-675 -2150)" fill="none" fill-rule="evenodd"><path d="M686.692 2153.5h-8.963a.23.23 0 0 0-.23.23v15.54c0 .127.102.23.23.23h12.54a.23.23 0 0 0 .23-.23v-12.058l-3.81-3.712z" stroke="#2D2F33"/><circle stroke="#2D2F33" fill-rule="nonzero" cx="684" cy="2159.5" r="1.5"/><path d="M684 2161.5v4" stroke="#2D2F33" stroke-linecap="square" fill-rule="nonzero"/><path fill="#2D2F33" fill-rule="nonzero" d="M684.5 2164h1v1h-1z"/></g></svg><svg width="34" height="34" viewBox="0 0 34 34" id="project|images|icons|Download.svg" x="438" y="356" xmlns="http://www.w3.org/2000/svg"><g fill="none" fill-rule="evenodd"><circle fill="#000" fill-rule="nonzero" opacity=".5" cx="17" cy="17" r="17"/><g fill="#FFF"><path d="M24 18.58V23H10v-4.42h2V21h10v-2.42h2z"/><path d="M16 17.118V9h2v8.126l3.026-2.884 1.142 1.28-5.16 4.925v.005l-5.163-4.927 1.14-1.28L16 17.12z"/></g></g></svg><svg width="20" height="19" viewBox="0 0 20 19" id="project|images|icons|DownloadImage.svg" x="216" y="557" xmlns="http://www.w3.org/2000/svg"><g fill="#9B9B9B" fill-rule="evenodd"><path d="M0-5h20H0zm20 18v6H0v-6h20zM2 13v4h16v-4H2z"/><path d="M9.993 14l.01.94.008-.94h-.016zM9 11.586V0h2v11.59L15.59 7l1.413 1.414-7 6.687v.005-.002l-.003.002V15.1L3 8.414 4.414 7 9 11.586z"/></g></svg><svg width="18" height="16" viewBox="0 0 18 16" id="project|images|icons|Export.svg" x="598" y="190" xmlns="http://www.w3.org/2000/svg"><g fill="none" fill-rule="evenodd"><path d="M13.5 14V2c0-.825-.676-1.5-1.506-1.5H2.006A1.5 1.5 0 0 0 .5 1.994v12.012c0 .823.674 1.494 1.506 1.494h9.988c.833 0 1.506-.672 1.506-1.5z" stroke="#7A7D7F"/><path d="M14.352 5.5l2.928 3" stroke="#7A7D80" stroke-linecap="square"/><path fill="#7A7D7F" d="M6 8h11v1H6z"/><path d="M17.423 8.43l-3.07 3" stroke="#7A7D80" stroke-linecap="square"/></g></svg><svg width="18" height="16" viewBox="0 0 18 16" id="project|images|icons|ExportHover.svg" x="598" y="174" xmlns="http://www.w3.org/2000/svg"><g fill="none" fill-rule="evenodd"><path d="M13.5 14V2c0-.825-.676-1.5-1.506-1.5H2.006A1.5 1.5 0 0 0 .5 1.994v12.012c0 .823.674 1.494 1.506 1.494h9.988c.833 0 1.506-.672 1.506-1.5z" stroke="#2D2F33"/><path d="M14.352 5.5l2.928 3" stroke="#2D2F33" stroke-linecap="square"/><path fill="#2D2F33" d="M6 8h11v1H6z"/><path d="M17.423 8.43l-3.07 3" stroke="#2D2F33" stroke-linecap="square"/></g></svg><svg width="17" height="23" viewBox="0 0 17 23" id="project|images|icons|ExportTop.svg" x="498" y="432" xmlns="http://www.w3.org/2000/svg"><g stroke="#7A7D80" fill="none" fill-rule="evenodd"><path d="M8.5 13.5V1.852" stroke-linecap="square"/><path d="M15.874 7.5H1.126C.754 7.5.5 7.722.5 8v13.957c0 .29.272.543.626.543h14.748c.356 0 .626-.25.626-.543V8c0-.276-.256-.5-.626-.5z"/><path d="M8.43 1L5 4.407M8.43 1l3.427 3.407" stroke-linecap="square"/></g></svg><svg width="20" height="20" viewBox="0 0 20 20" id="project|images|icons|Expression.svg" x="136" y="557" xmlns="http://www.w3.org/2000/svg"><g fill="none" fill-rule="evenodd"><circle stroke="#C7C7C7" fill="#FFF" cx="10" cy="10" r="9.5"/><path d="M10 16c-3.314 0-6-2.24-6-5h12c0 2.76-2.686 5-6 5zM6 8c-.552 0-1-.672-1-1.5S5.448 5 6 5s1 .672 1 1.5S6.552 8 6 8zm8 0c-.552 0-1-.672-1-1.5S13.448 5 14 5s1 .672 1 1.5S14.552 8 14 8z" fill="#AAA"/></g></svg><svg width="24" height="24" viewBox="0 0 24 24" id="project|images|icons|ExternalDetails.svg" x="230" y="244" xmlns="http://www.w3.org/2000/svg"><g fill="none" fill-rule="evenodd"><path d="M0 0h24v24H0z"/><circle cx="10.5" cy="7.5" r="3" stroke="#000"/><path fill="#000" fill-rule="nonzero" d="M12 12.29v1.05A6 6 0 0 0 4 19H3a7 7 0 0 1 9-6.71zM17 19h-1 1z"/><path fill="#191919" d="M13 12h7v1h-7zm0 2h7v1h-7zm0 2h7v1h-7zm0 2h4v1h-4z"/></g></svg><svg width="16" height="16" viewBox="0 0 16 16" id="project|images|icons|Favorite.svg" x="598" y="273" xmlns="http://www.w3.org/2000/svg"><path d="M8.285 11.905l-4.903 3.36L5.015 9.56.645 5.982H6.21L8.286.62l2.087 5.363h5.573L11.57 9.56l1.63 5.705z" fill="#FF9500" fill-rule="evenodd"/></svg><svg width="16" height="16" viewBox="0 0 16 16" id="project|images|icons|FavoriteNormal.svg" x="598" y="241" xmlns="http://www.w3.org/2000/svg"><path d="M12.34 14.07l-1.342-4.69 3.545-2.897H10.03l-1.744-4.48-1.732 4.48H2.046l3.54 2.897-1.34 4.687 4.04-2.768 4.054 2.77z" stroke="#AAA" fill="none" fill-rule="evenodd"/></svg><svg width="14" height="14" viewBox="0 0 14 14" id="project|images|icons|GrayArrowRightWithCircle.svg" x="598" y="479" xmlns="http://www.w3.org/2000/svg"><g fill="none" fill-rule="evenodd"><circle stroke="#8F8F8F" cx="7" cy="7" r="6.188"/><path stroke="#787B80" d="M6.12 4.292l2.533 2.884L6.12 9.708"/></g></svg><svg width="50" height="60" viewBox="0 0 50 60" id="project|images|icons|GrayBigFile.svg" x="300" y="395" xmlns="http://www.w3.org/2000/svg"><path d="M0 1.996C0 .894.89 0 2 0h34l14 14v43.994C50 59.102 49.11 60 48.01 60H1.99C.892 60 0 59.105 0 58.004V1.996zM34 2v14h14L34 2z" fill="#DDD" fill-rule="evenodd"/></svg><svg width="60" height="60" viewBox="0 0 60 60" id="project|images|icons|GrayBigMpNews.svg" x="240" y="395" xmlns="http://www.w3.org/2000/svg"><path d="M0 1.996C0 .894.895 0 1.996 0h56.008C59.106 0 60 .895 60 1.996v56.008A1.997 1.997 0 0 1 58.004 60H1.996A1.997 1.997 0 0 1 0 58.004V1.996zM9 9v24h42V9H9zm0 28v5h42v-5H9zm0 9v5h42v-5H9z" fill="#DDD" fill-rule="evenodd"/></svg><svg width="60" height="56" viewBox="0 0 60 56" id="project|images|icons|GrayBigNews.svg" x="438" y="180" xmlns="http://www.w3.org/2000/svg"><path d="M0 26.497C0 11.83 13.458 0 30 0c16.54 0 30 11.83 30 26.497 0 14.666-13.46 26.496-30 26.496-3.34 0-6.633-.493-9.77-1.445a1.94 1.94 0 0 0-.594-.094c-.36 0-.716.113-1.1.346l-6.377 3.884c-.34.207-.635.316-1.01.316-1.023 0-1.843-.865-1.843-1.918 0-.267.04-.456.137-.8a5.31 5.31 0 0 0 .048-.174l.85-3.342.463-1.825c.054-.21.073-.32.073-.423 0-.384-.175-.733-.466-.952C3.868 41.56 0 34.288 0 26.497zm30 3.37a3.742 3.742 0 0 0 3.75-3.734A3.742 3.742 0 0 0 30 22.4a3.742 3.742 0 0 0-3.75 3.733A3.742 3.742 0 0 0 30 29.867zm-15 0a3.742 3.742 0 0 0 3.75-3.734A3.742 3.742 0 0 0 15 22.4a3.742 3.742 0 0 0-3.75 3.733A3.742 3.742 0 0 0 15 29.867zm30 0a3.742 3.742 0 0 0 3.75-3.734A3.742 3.742 0 0 0 45 22.4a3.742 3.742 0 0 0-3.75 3.733A3.742 3.742 0 0 0 45 29.867z" fill="#DDD"/></svg><svg width="60" height="60" viewBox="0 0 60 60" id="project|images|icons|GrayBigPic.svg" x="300" y="335" xmlns="http://www.w3.org/2000/svg"><path d="M23.63 43.987L18.4 32 4 54h52L37.5 14 23.63 43.987zM0 1.997C0 .893.895 0 1.996 0h56.008C59.106 0 60 .895 60 1.996v56.008A1.997 1.997 0 0 1 58.004 60H1.996A1.997 1.997 0 0 1 0 58.004V1.996z" fill="#DDD" fill-rule="evenodd"/></svg><svg width="60" height="60" viewBox="0 0 60 60" id="project|images|icons|GrayBigText.svg" x="240" y="335" xmlns="http://www.w3.org/2000/svg"><path d="M0 1.996C0 .894.895 0 1.996 0h56.008C59.106 0 60 .895 60 1.996v56.008A1.997 1.997 0 0 1 58.004 60H1.996A1.997 1.997 0 0 1 0 58.004V1.996zM9 13v3c0 .556.446 1 .997 1h40.006A.996.996 0 0 0 51 16v-3c0-.556-.446-1-.997-1H9.997A.996.996 0 0 0 9 13zm0 10v3c0 .556.446 1 .997 1h40.006A.996.996 0 0 0 51 26v-3c0-.556-.446-1-.997-1H9.997A.996.996 0 0 0 9 23zm0 10v3c0 .556.446 1 .997 1h40.006A.996.996 0 0 0 51 36v-3c0-.556-.446-1-.997-1H9.997A.996.996 0 0 0 9 33zm0 10v3c0 .556.45 1 1.003 1h20.994A.995.995 0 0 0 32 46v-3c0-.556-.45-1-1.003-1H10.003A.995.995 0 0 0 9 43z" fill="#DDD" fill-rule="evenodd"/></svg><svg width="60" height="60" viewBox="0 0 60 60" id="project|images|icons|GrayBigVideo.svg" x="60" y="335" xmlns="http://www.w3.org/2000/svg"><path d="M0 1.996C0 .894.895 0 1.996 0h56.008C59.106 0 60 .895 60 1.996v56.008A1.997 1.997 0 0 1 58.004 60H1.996A1.997 1.997 0 0 1 0 58.004V1.996zM46 30L18 14v32l28-16z" fill="#DDD" fill-rule="evenodd"/></svg><svg width="50" height="67" viewBox="0 0 50 67" id="project|images|icons|GrayBigVoice.svg" y="268" xmlns="http://www.w3.org/2000/svg"><path d="M37.906.002c7.44 8.918 11.96 20.35 12.09 32.835v1.194c-.15 12.564-4.74 24.06-12.276 32.993l-7.156-5.635a42.914 42.914 0 0 0 10.316-27.97A42.91 42.91 0 0 0 30.766 5.682l7.14-5.68zm-14.28 11.364A33.862 33.862 0 0 1 31.76 33.43c0 8.54-3.15 16.346-8.354 22.32l-7.138-5.62a24.846 24.846 0 0 0 6.43-16.714 24.842 24.842 0 0 0-6.16-16.41l7.088-5.64zM6.818 40.212A6.814 6.814 0 0 1 0 33.402a6.814 6.814 0 0 1 6.818-6.81 6.814 6.814 0 0 1 6.818 6.81 6.814 6.814 0 0 1-6.818 6.81z" fill="#DDD" fill-rule="evenodd"/></svg><svg width="14" height="14" viewBox="0 0 14 14" id="project|images|icons|GraySmallDown.svg" x="598" y="371" xmlns="http://www.w3.org/2000/svg"><path d="M6 6V0h2v6h2l-3 4-3-4h2zM2 6v6h10V6h.993C13.55 6 14 6.453 14 6.997v6.006c0 .55-.45.997-1.007.997H1.007A1.006 1.006 0 0 1 0 13.003V6.997C0 6.447.45 6 1.007 6H2z" fill="#AAA" fill-rule="evenodd"/></svg><svg width="14" height="14" viewBox="0 0 14 14" id="project|images|icons|GraySmallEdit.svg" x="598" y="357" xmlns="http://www.w3.org/2000/svg"><path d="M0 11.084V14h2.916l8.6-8.6L8.6 2.483l-8.6 8.6zm13.773-7.94a.774.774 0 0 0 0-1.097l-1.82-1.82a.774.774 0 0 0-1.097 0L9.433 1.65l2.916 2.917 1.422-1.423z" fill="#AAA" fill-rule="evenodd"/></svg><svg width="12" height="14" viewBox="0 0 12 14" id="project|images|icons|GraySmallTrash.svg" x="598" y="507" xmlns="http://www.w3.org/2000/svg"><path d="M5 1V0h2v1h3.998a1 1 0 1 1 0 2H1.002a1 1 0 1 1 0-2H5zM1 4.995c0-.55.456-.995.995-.995h8.01c.55 0 .995.456.995.995v8.01c0 .55-.456.995-.995.995h-8.01c-.55 0-.995-.456-.995-.995v-8.01zM7 6v6h2V6H7zM3 6v6h2V6H3z" fill="#AAA" fill-rule="evenodd"/></svg><svg width="52" height="40" viewBox="0 0 52 40" id="project|images|icons|GrayWeb.svg" x="52" y="455" xmlns="http://www.w3.org/2000/svg"><g stroke="#A8ADB1" fill="none" fill-rule="evenodd"><path d="M20.5 33.5v2.89l-4 1v2.11h19v-2.11l-4-1V33.5h-11z"/><rect x=".5" y=".5" width="51" height="33" rx="2"/><path d="M.5 26.5v5.502c0 .832.67 1.498 1.507 1.498h47.986c.83 0 1.507-.673 1.507-1.498V26.5H.5z"/></g></svg><svg width="110" height="88" viewBox="0 0 110 88" id="project|images|icons|GroupMember.svg" x="268" xmlns="http://www.w3.org/2000/svg"><g fill="#DDD" fill-rule="evenodd"><path d="M71.073 56.553c1.674-.972 3.042-1.834 3.99-2.653.485-1.21 1.305-3.37-1.414-7.187-2.55-3.448-5.597-8.102-3.115-17.69 3.333-8.677 10.357-8.723 11.337-8.686a2.05 2.05 0 0 1 .254 0c.977-.037 8.003.007 11.337 8.685 2.482 9.59-.563 14.243-3.113 17.69-2.718 3.818-1.898 5.98-1.413 7.188 1.69 1.46 4.712 3.055 8.42 5.166 3.71 2.11 7.718 4.5 10.396 5.98 3.986 2.766 1.62 7.357.81 7.357h-11.18c-.546-.71-1.254-1.392-2.155-2.017-4.495-2.482-11.224-6.494-17.45-10.038-2.432-1.384-4.69-2.637-6.705-3.795z"/><path d="M47 87.62v.115H2.413c-1.36 0-5.333-7.705 1.36-12.35 4.494-2.48 11.223-6.493 17.448-10.037 6.228-3.543 11.3-6.22 14.138-8.67.813-2.03 2.19-5.657-2.375-12.064-4.28-5.79-9.392-13.6-5.224-29.695C33.35.353 45.14.276 46.785.34a3.44 3.44 0 0 1 .427 0c1.64-.062 13.434.01 19.03 14.58 4.167 16.094-.945 23.905-5.225 29.694-4.564 6.407-3.188 10.033-2.375 12.063 2.837 2.45 7.91 5.128 14.136 8.67 6.223 3.545 12.952 7.557 17.447 10.04 6.692 4.643 2.718 12.35 1.36 12.35H47v-.118z"/></g></svg><svg width="56" height="50" viewBox="0 0 56 50" id="project|images|icons|ImportFromWechat.svg" x="498" y="180" xmlns="http://www.w3.org/2000/svg"><g fill="none" fill-rule="evenodd"><path d="M0-.667h56v50H0z"/><path d="M49.808 44.036l1.977 4.993-5.456-3.02c-2.358 1.015-5.017 1.586-7.83 1.586-9.666 0-17.5-6.733-17.5-15.04 0-8.304 7.834-15.037 17.5-15.037S56 24.252 56 32.557c0 4.6-2.404 8.72-6.192 11.478zM32.516 30.3c1.33 0 2.41-1.118 2.41-2.497 0-1.38-1.08-2.498-2.41-2.498s-2.408 1.12-2.408 2.498c0 1.38 1.078 2.497 2.408 2.497zm12.043 0c1.33 0 2.407-1.118 2.407-2.497 0-1.38-1.08-2.498-2.41-2.498s-2.407 1.12-2.407 2.498c0 1.38 1.08 2.497 2.41 2.497z" fill="#3EB742"/><path d="M19.274 36.525a22.068 22.068 0 0 1-6.478-1.23L6.022 39.04l2.344-5.92C3.298 29.83 0 24.48 0 18.438 0 8.44 9.03.333 20.172.333c9.897 0 18.13 6.397 19.844 14.836-.63-.056-1.27-.083-1.916-.083-10.77 0-19.5 7.608-19.5 16.993 0 1.54.234 3.03.674 4.445zm-6.027-21.208c1.33 0 2.41-1.118 2.41-2.498 0-1.38-1.08-2.5-2.41-2.5s-2.407 1.12-2.407 2.5 1.077 2.497 2.407 2.497zm14.452 0c1.33 0 2.407-1.118 2.407-2.498 0-1.38-1.08-2.5-2.41-2.5s-2.407 1.12-2.407 2.5 1.08 2.497 2.41 2.497z" fill="#3EB742"/></g></svg><svg width="42" height="50" viewBox="0 0 42 50" id="project|images|icons|ImportFromXls.svg" y="507" xmlns="http://www.w3.org/2000/svg"><g fill="none" fill-rule="evenodd"><path d="M3.104.333C1.38.333 0 1.703 0 3.393v42.88c0 1.842 1.39 3.06 3.104 3.06h35.714c2.347 0 3.182-1.247 3.182-3.14V13.566c0-1.103-.638-2.626-1.422-3.398l-8.564-8.435c-.786-.774-2.32-1.4-3.42-1.4H3.104z" fill="#32885A"/><path fill="#FFF" d="M27.97 35.333l-6.523-7.536-4.372 5.027h4.29v2.51H11l8.46-9.833-7.94-9.166h3.757l6.054 6.992 6.016-6.992H31.1L23.3 25.6l8.428 9.734z"/></g></svg><svg width="16" height="16" viewBox="0 0 16 16" id="project|images|icons|Kefu16.svg" x="598" y="289" xmlns="http://www.w3.org/2000/svg"><defs><path id="eca" d="M0 0h16v16H0z"/></defs><g fill="none" fill-rule="evenodd"><use fill="#008BFF" xlink:href="#eca"/><use fill-opacity=".15" fill="#FFF" xlink:href="#eca"/><path d="M9.232 12.3c1.39-.378 2.492-1.38 2.93-2.66h-.33a.658.658 0 0 1-.123.013h-.156a.5.5 0 0 1-.5-.5v-1.47a.5.5 0 0 1 .5-.5h.154c.076 0 .15.012.217.036v-.077c0-1.976-1.76-3.582-3.927-3.582-2.17 0-3.927 1.604-3.927 3.583v.042a.505.505 0 0 1 .064-.004h.31a.5.5 0 0 1 .5.5v1.47a.5.5 0 0 1-.5.5H4.29a.658.658 0 0 1-.124-.01H3.4c-.2-.205-.2-.403-.2-.71V7.145C3.2 4.67 5.348 2.667 8 2.667c2.65 0 4.8 2.007 4.8 4.477V8.93c0 .306-.095.504-.198.708-.464 1.495-1.702 2.672-3.27 3.105v.09a.5.5 0 0 1-.5.5H7.168a.5.5 0 0 1-.5-.5v-.23a.5.5 0 0 1 .5-.5h1.666a.5.5 0 0 1 .4.197zm-1.366-.744c-.75 0-1.442-.306-2-.82v-.82h.238c.47.51 1.087.82 1.762.82.676 0 1.293-.31 1.764-.82h.237v.82c-.558.514-1.25.82-2 .82z" fill="#FFF"/></g></svg><svg width="20" height="20" viewBox="0 0 20 20" id="project|images|icons|Kefu20.svg" x="598" y="20" xmlns="http://www.w3.org/2000/svg"><defs><path id="eda" d="M0 0h20v20H0z"/></defs><g fill="none" fill-rule="evenodd"><use fill="#008BFF" xlink:href="#eda"/><use fill-opacity=".15" fill="#FFF" xlink:href="#eda"/><path d="M11.667 15.28v.22a.5.5 0 0 1-.5.5H8.833a.5.5 0 0 1-.5-.5V15a.5.5 0 0 1 .5-.5h2.334a.5.5 0 0 1 .42.228c1.715-.47 3.073-1.685 3.614-3.228h-.41c-.05.01-.1.014-.153.014h-.318a.5.5 0 0 1-.5-.5v-2.01a.5.5 0 0 1 .5-.5h.317c.096 0 .188.015.273.045v-.094c0-2.41-2.2-4.366-4.91-4.366-2.712 0-4.91 1.955-4.91 4.367v.046h.592a.5.5 0 0 1 .5.5v2.01a.5.5 0 0 1-.5.5h-.318a.823.823 0 0 1-.154-.013h-.96C4 11.25 4 11.008 4 10.634v.002-2.18C4 5.444 6.686 3 10 3s6 2.447 6 5.457v2.177c0 .372-.12.613-.248.862-.58 1.823-2.127 3.257-4.085 3.785zm-1.834-1.447c-.938 0-1.803-.372-2.5-1v-1h.296c.586.622 1.36 1 2.202 1 .844 0 1.616-.378 2.204-1h.296v1c-.697.628-1.563 1-2.5 1z" fill="#FFF"/></g></svg><svg width="24" height="24" viewBox="0 0 24 24" id="project|images|icons|Kefu24.svg" x="350" y="292" xmlns="http://www.w3.org/2000/svg"><defs><path id="eea" d="M0 0h24v24H0z"/></defs><g fill="none" fill-rule="evenodd"><use fill="#008BFF" xlink:href="#eea"/><use fill-opacity=".15" fill="#FFF" xlink:href="#eea"/><path d="M13.888 18.424c1.984-.587 3.552-2.075 4.18-3.962h-.475a.96.96 0 0 1-.184.017h-.456a.5.5 0 0 1-.5-.5v-2.71a.5.5 0 0 1 .5-.5h.454c.11 0 .218.02.317.055v-.11c0-2.966-2.566-5.374-5.727-5.374-3.163 0-5.727 2.406-5.727 5.374v.11a.953.953 0 0 1 .32-.054h.454a.5.5 0 0 1 .5.5v2.707a.5.5 0 0 1-.5.5H6.59a.96.96 0 0 1-.183-.018H5.292C5 14.153 5 13.855 5 13.395v.003-2.685C5 7.005 8.133 4 12 4c3.866 0 7 3.012 7 6.716v2.68c0 .458-.14.755-.29 1.06-.676 2.244-2.48 4.01-4.766 4.66v.384a.5.5 0 0 1-.5.5h-2.888a.5.5 0 0 1-.5-.5v-.846a.5.5 0 0 1 .5-.5h2.888a.5.5 0 0 1 .444.27zm-2.083-1.09c-1.094 0-2.104-.46-2.916-1.232v-1.23h.343c.686.765 1.586 1.23 2.57 1.23.986 0 1.887-.464 2.573-1.23h.345v1.23c-.812.773-1.823 1.23-2.916 1.23z" fill="#FFF"/></g></svg><svg width="30" height="30" viewBox="0 0 30 30" id="project|images|icons|Kefu30.svg" x="378" y="300" xmlns="http://www.w3.org/2000/svg"><defs><path id="efa" d="M0 0h30v30H0z"/></defs><g fill="none" fill-rule="evenodd"><use fill="#008BFF" xlink:href="#efa"/><use fill-opacity=".15" fill="#FFF" xlink:href="#efa"/><path d="M17.466 22.818C20 22.095 22 20.288 22.8 18h-.41a1.004 1.004 0 0 1-.208.022h-.955a.5.5 0 0 1-.5-.5v-3.518a.5.5 0 0 1 .5-.5h.955c.062 0 .123.005.182.016v-.085c0-3.613-3.3-6.55-7.364-6.55-4.067 0-7.364 2.933-7.364 6.55v.085c.06-.01.12-.016.182-.016h.955a.5.5 0 0 1 .5.5v3.518a.5.5 0 0 1-.5.5h-.955c-.07 0-.14-.008-.207-.022H6.377C6 17.625 6 17.262 6 16.7v.005-3.27c0-4.52 4.028-8.185 9-8.185 4.97 0 9 3.67 9 8.185V16.7c0 .56-.18.92-.372 1.294-.87 2.734-3.19 4.886-6.128 5.678v.578a.5.5 0 0 1-.5.5h-4a.5.5 0 0 1-.5-.5V23a.5.5 0 0 1 .5-.5h4a.5.5 0 0 1 .466.318zM14.75 21.5c-1.407 0-2.706-.56-3.75-1.5v-1.5h.444c.882.933 2.04 1.5 3.305 1.5 1.265 0 2.423-.567 3.305-1.5h.444V20c-1.047.94-2.346 1.5-3.75 1.5z" fill="#FFF"/></g></svg><svg width="40" height="40" viewBox="0 0 40 40" id="project|images|icons|Kefu40.svg" x="264" y="455" xmlns="http://www.w3.org/2000/svg"><defs><path id="ega" d="M0 0h40v40H0z"/></defs><g fill="none" fill-rule="evenodd"><use fill="#008BFF" xlink:href="#ega"/><use fill-opacity=".15" fill="#FFF" xlink:href="#ega"/><path d="M23.333 31.562V32a1 1 0 0 1-1 1h-4.666a1 1 0 0 1-1-1v-1a1 1 0 0 1 1-1h4.666a1 1 0 0 1 .84.456c3.43-.94 6.147-3.37 7.228-6.456h-.25a1.002 1.002 0 0 1-.24.03h-1.273a1 1 0 0 1-1-1v-4.025a1 1 0 0 1 1-1h1.182v-.09c0-4.82-4.4-8.733-9.82-8.733-5.422 0-9.817 3.91-9.817 8.732v.09h1.182a1 1 0 0 1 1 1v4.025a1 1 0 0 1-1 1H10.09c-.082 0-.162-.01-.24-.03H8.5c-.5-.5-.5-.984-.5-1.733v.005-4.36C8 11.887 13.37 7 20 7c6.627 0 12 4.894 12 10.914v4.354c0 .745-.238 1.227-.496 1.724-1.16 3.646-4.253 6.515-8.17 7.57zm1.334-4.897c-1.395 1.257-3.127 2.002-5.002 2.002s-3.606-.746-4.998-2v-2h.592c1.174 1.243 2.717 2 4.404 2 1.69 0 3.233-.756 4.41-2h.592v2z" fill="#FFF"/></g></svg><svg width="14" height="14" viewBox="0 0 14 14" id="project|images|icons|LoginCorpVerifiedSucc.svg" x="598" y="385" xmlns="http://www.w3.org/2000/svg"><g stroke="#03C77B" fill="none" fill-rule="evenodd"><path d="M7.064.577L1.5 3.777c-.002.353.01.787.044 1.275.06.86.177 1.71.364 2.5.198.834.466 1.563.808 2.153.44.757 1.11 1.478 1.952 2.15a13.855 13.855 0 0 0 2.402 1.53 11.675 11.675 0 0 0 2.494-1.643c.74-.64 1.357-1.353 1.81-2.135.274-.472.5-.992.686-1.554.478-1.46.622-2.994.578-4.272l-1.564-.897-1.237-.71L7.064.576z"/><path d="M6.36 9.275l3.678-3.723a.285.285 0 0 0 0-.4.272.272 0 0 0-.385-.004l-.002.003-3.29 3.333L5.005 7.11a.272.272 0 0 0-.384-.002l-.003.002a.285.285 0 0 0 0 .4L6.36 9.276z" stroke-width=".544" fill="#03C77B"/></g></svg><svg width="14" height="14" viewBox="0 0 14 14" id="project|images|icons|LoginRedProblem.svg" x="598" y="343" xmlns="http://www.w3.org/2000/svg"><g transform="translate(-67 -99)" fill="none" fill-rule="evenodd"><circle stroke="#E06460" cx="74" cy="106" r="6"/><path d="M74.192 102.564c.576 0 1.044.153 1.404.477.36.317.54.75.54 1.29 0 .44-.117.81-.343 1.097-.08.1-.333.333-.756.702a1.495 1.495 0 0 0-.378.467c-.1.18-.146.378-.146.594v.154h-.963v-.153c0-.332.055-.62.18-.854.12-.252.46-.62 1.018-1.116l.153-.172c.16-.207.25-.423.25-.657 0-.313-.09-.556-.26-.736-.18-.18-.44-.27-.764-.27-.404 0-.7.126-.882.387-.16.217-.242.523-.242.92h-.946c0-.658.19-1.17.567-1.55.38-.386.9-.575 1.567-.575zm-.162 5.265c.19 0 .35.052.477.18.125.115.188.27.188.457a.64.64 0 0 1-.197.468.676.676 0 0 1-.47.18.645.645 0 0 1-.655-.648c0-.19.063-.342.188-.46a.637.637 0 0 1 .47-.18z" fill="#E65E60"/></g></svg><svg width="24" height="24" viewBox="0 0 24 24" id="project|images|icons|ManageExternal.svg" x="48" y="557" xmlns="http://www.w3.org/2000/svg"><g fill="none" fill-rule="evenodd" stroke="#000"><circle cx="12" cy="12" r="8.5"/><path d="M9.5 14.5l2 2H16m-9-7h6.5m-1.5 4h5m-11 0h3m5.5-3a1 1 0 1 0 0-2 1 1 0 0 0 0 2zm-5 4a1 1 0 1 0 0-2 1 1 0 0 0 0 2z"/></g></svg><svg width="64" height="18" viewBox="0 0 64 18" id="project|images|icons|MiniAppMarket.svg" x="268" y="249" xmlns="http://www.w3.org/2000/svg"><g fill="none" fill-rule="evenodd"><text font-family="PingFangSC-Regular, PingFang SC" font-size="14" fill="#757980" transform="translate(0 -1)"><tspan x="22" y="15"></tspan></text><rect fill="#35BA29" width="18" height="18" rx="9"/><path d="M13.644 8.333a2.806 2.806 0 0 1-1.62 1.21l-.053.016c-.105.03-.215.05-.324.05-.48 0-.75-.327-.606-.728.106-.292.386-.54.727-.654.53-.194.9-.634.9-1.147 0-.69-.672-1.25-1.5-1.25-.83 0-1.5.56-1.5 1.25v3.835c0 .922-.535 1.73-1.334 2.187-.435.25-.95.396-1.5.396C5.27 13.5 4 12.34 4 10.918c0-.455.13-.88.356-1.25a2.807 2.807 0 0 1 1.63-1.215c.12-.037.24-.057.36-.057.484 0 .756.326.61.728-.1.273-.366.507-.678.632a1.702 1.702 0 0 0-.11.04c-.494.205-.835.63-.835 1.12 0 .69.672 1.25 1.5 1.25.83 0 1.5-.56 1.5-1.25V7.084c0-.922.534-1.73 1.334-2.187.435-.25.948-.396 1.5-.396C12.73 4.5 14 5.66 14 7.084c0 .454-.13.88-.356 1.25" fill="#FFF"/></g></svg><svg width="24" height="24" viewBox="0 0 24 24" id="project|images|icons|MoreExternal.svg" x="24" y="557" xmlns="http://www.w3.org/2000/svg"><g fill="none" fill-rule="evenodd"><path d="M0 0h24v24H0z"/><circle cx="7" cy="9.5" r="2" stroke="#000"/><path fill="#000" fill-rule="nonzero" d="M9.25 13.437a8.043 8.043 0 0 0-.687.812A5 5 0 0 0 2 19H1a6 6 0 0 1 8.25-5.563z"/><circle cx="15" cy="8" r="2.5" stroke="#000"/><path fill="#000" fill-rule="nonzero" d="M9 19a6 6 0 1 1 12 0h1a7.003 7.003 0 0 0-4.51-6.544A7 7 0 0 0 8 19h1z"/></g></svg><svg width="40" height="40" viewBox="0 0 40 40" id="project|images|icons|NoticeAttachmentExcel.svg" x="344" y="507" xmlns="http://www.w3.org/2000/svg"><g fill="none" fill-rule="evenodd"><rect fill="#00BC66" width="40" height="40" rx="1.143"/><path d="M15 25.676V22H9.352v3.293c0 .21.174.383.388.383H15zm2 0h13.302a.385.385 0 0 0 .39-.383v-8.327L17 16.986V20h13.674v2H17v3.676zm-2-8.687l-5.648.006V20H15v-3.01zm2-5.128v3.123l13.69-.02v-2.72a.388.388 0 0 0-.388-.383H17zm-2 0H9.74a.385.385 0 0 0-.388.384v2.75L15 14.99v-3.126zm-7.5-1.11c0-.416.335-.753.762-.753h23.476c.42 0 .762.333.762.75v15.997a.753.753 0 0 1-.762.752H8.262a.755.755 0 0 1-.762-.753V10.752z" fill="#FFF"/></g></svg><svg width="40" height="40" viewBox="0 0 40 40" id="project|images|icons|NoticeAttachmentImage.svg" x="104" y="455" xmlns="http://www.w3.org/2000/svg"><g fill="none" fill-rule="evenodd"><path fill="#FFF" d="M0 0h40v40H0z"/><rect fill="#48BACB" width="40" height="40" rx="1.14"/><path stroke="#FFF" stroke-width="2" d="M8.5 11h23v18h-23z"/><path d="M23.298 23.893l2.71-3.64c.172-.23.46-.23.64.01l4.602 6.188V30H8.75v-4.312l6.59-7.94a.428.428 0 0 1 .674.004l6.27 7.502.427-.573 2.1 2.314-1.51-3.1z" fill="#FFF"/></g></svg><svg width="40" height="40" viewBox="0 0 40 40" id="project|images|icons|NoticeAttachmentKeynote.svg" x="144" y="455" xmlns="http://www.w3.org/2000/svg"><g fill="none" fill-rule="evenodd"><rect fill="#2F83DD" width="40" height="40" rx=".76"/><path d="M13.75 8.75H27.5l1.25 8.75H12.5zM20 27.5v-6.25h-8.75V20H30v1.25h-8.77v6.25H25v1.25h-8.75V27.5H20z" fill="#FFF"/></g></svg><svg width="40" height="40" viewBox="0 0 40 40" id="project|images|icons|NoticeAttachmentMail.svg" x="558" y="360" xmlns="http://www.w3.org/2000/svg"><g fill="none" fill-rule="evenodd"><path fill="#F5A623" d="M0 0h40v40H0z"/><path d="M32.5 15.055l-12.758 3.523h-.698L7.5 15.165V10.76c0-.42.335-.76.762-.76h23.476c.42 0 .762.347.762.76v4.295zm0 1.348V29.24c0 .42-.335.76-.762.76H8.262a.765.765 0 0 1-.762-.76V16.5l9.887 3.244c.84.276 2.073.756 2.073.756l-.552-.257c.305.142 1.026 0 1.026 0l-.474.257c.26-.142 1.164-.468 1.995-.722L32.5 16.403z" fill="#FFF"/></g></svg><svg width="40" height="40" viewBox="0 0 40 40" id="project|images|icons|NoticeAttachmentMusic.svg" x="558" y="320" xmlns="http://www.w3.org/2000/svg"><g fill="none" fill-rule="evenodd"><path fill="#FFF" d="M0 0h40v40H0z"/><rect fill="#0CC69C" width="40" height="40" rx="1.14"/><path d="M12.5 10.27c0-.15.112-.29.26-.313l14.48-2.414c.143-.024.26.08.26.226v4.73l-15 2.5v-4.73z" fill="#FFF"/><path fill="#FFF" d="M26.25 10h1.25v15h-1.25zM12.5 12.5h1.25v16.25H12.5z"/><path d="M27.5 25.117c0-1.613-1.552-3.148-3.273-2.94-1.722.21-4.214 1.91-4.214 4.01 0 2.1 2.414 3.038 3.737 2.567 2.743-.93 3.75-2.024 3.75-3.637zm-13.75 3.066c-.46-2.674-2.427-3.487-3.75-3.087-2.743.79-4.074 2.566-3.75 3.087.46 2.674 2.427 3.488 3.75 3.088 2.743-.79 4.074-2.565 3.75-3.086z" fill="#FFF"/></g></svg><svg width="40" height="40" viewBox="0 0 40 40" id="project|images|icons|NoticeAttachmentNormal.svg" x="558" y="120" xmlns="http://www.w3.org/2000/svg"><g fill="none" fill-rule="evenodd"><path fill="#FFF" d="M0 0h40v40H0z"/><rect fill="#6E86A2" width="40" height="40" rx="1.14"/><path d="M22.5 7.5v5.712c0 .29.24.538.538.538h5.712v15.726a.532.532 0 0 1-.524.524H11.774a.537.537 0 0 1-.524-.534V8.034c0-.297.238-.534.53-.534H22.5z" fill="#FFF"/><path d="M24.02 12.5a.27.27 0 0 1-.27-.27V7.5l5 5h-4.73z" fill="#FFF"/></g></svg><svg width="40" height="40" viewBox="0 0 40 40" id="project|images|icons|NoticeAttachmentNumbers.svg" x="558" y="80" xmlns="http://www.w3.org/2000/svg"><g fill="none" fill-rule="evenodd"><path fill="#54BC59" d="M0 0h40v40H0z"/><path d="M10 30h20v-1.25H10zm16.25-12.5h2.5v10h-2.5zm-5-6.25h2.5V27.5h-2.5zm-5 7.5h2.5v8.75h-2.5zm-5 3.75h2.5v5h-2.5z" fill="#FFF"/></g></svg><svg width="40" height="40" viewBox="0 0 40 40" id="project|images|icons|NoticeAttachmentPages.svg" x="558" y="40" xmlns="http://www.w3.org/2000/svg"><g fill="none" fill-rule="evenodd"><path fill="#FF9915" d="M0 0h40v40H0z"/><path fill="#FFF" d="M7.5 28.75h25V30h-25zm11.74-13.82c.688-.68 1.268-1.246 1.405-1.386l2.106 2.158c-.15.2-.82.957-1.256 1.34-.434.38-5.49 4.978-7.57 6.968l-1.565-1.785c1.955-2.113 3.387-3.447 6.88-7.296zm-9.198 11.32c.303.182 1.535-.03 2.834-1.222l-1.438-1.597c-1.18 1.315-1.577 2.514-1.396 2.82zm18.99-20c-.054-.028 1 1 1 1-.07.164-2.567 3.793-5.734 6.902l-2.182-2.197c3.11-3.166 6.752-5.636 6.917-5.705z"/></g></svg><svg width="40" height="40" viewBox="0 0 40 40" id="project|images|icons|NoticeAttachmentPdf.svg" x="558" xmlns="http://www.w3.org/2000/svg"><g fill="none" fill-rule="evenodd"><path fill="#FFF" d="M0 0h40v40H0z"/><rect fill="#EC5D78" width="40" height="40" rx=".76"/><path d="M18.5 10.398c-1.112-2.21-2.272-2.072-3.544-.377-.5 4.69 2.22 6.908 5.506 10.6 2.36 2.653 6.325 3.624 6.862 3.777 1.285.365 4.298.964 4.298-1.038s-3.64-2.02-5.87-1.828c-9.573.82-15.062 4.025-16.16 5.09-1.1 1.063-1.884 4.192 1.76 3.325 3.64-.868 8.26-17.336 7.147-19.547z" stroke="#FFF" stroke-width="2"/></g></svg><svg width="40" height="40" viewBox="0 0 40 40" id="project|images|icons|NoticeAttachmentPpt.svg" x="504" y="507" xmlns="http://www.w3.org/2000/svg"><g fill="none" fill-rule="evenodd"><path fill="#FFF" d="M0 0h40v40H0z"/><rect fill="#F97759" width="40" height="40" rx="1.14"/><path d="M30 20c0 5.523-4.477 10-10 10s-10-4.477-10-10 4.477-10 10-10v10h10z" fill="#FFF"/><path d="M32.25 17.5H22.5V7.75a12.515 12.515 0 0 1 9.75 9.75z" fill="#FFF"/></g></svg><svg width="40" height="40" viewBox="0 0 40 40" id="project|images|icons|NoticeAttachmentTxt.svg" x="464" y="507" xmlns="http://www.w3.org/2000/svg"><g fill="none" fill-rule="evenodd"><rect fill="#548DE4" width="40" height="40" rx="1.14"/><path d="M23.75 7.5v5.712c0 .29.24.538.537.538H30v18.21a.54.54 0 0 1-.535.54h-18.93a.528.528 0 0 1-.535-.522V8.262c0-.427.342-.762.764-.762H23.75z" fill="#FFF"/><path fill="#548DE4" d="M12.5 20h15v1.25h-15zm0 5h15v1.25h-15z"/><path d="M25.27 12.5a.27.27 0 0 1-.27-.27V7.5l5 5h-4.73z" fill="#FFF"/></g></svg><svg width="40" height="40" viewBox="0 0 40 40" id="project|images|icons|NoticeAttachmentVideo.svg" x="424" y="507" xmlns="http://www.w3.org/2000/svg"><g fill="none" fill-rule="evenodd"><rect fill="#9762EA" opacity=".9" width="40" height="40" rx=".76"/><path d="M25 17.88c0-.21.143-.475.322-.595l6.856-4.57c.178-.12.322-.038.322.173v11.724c0 .214-.143.293-.322.173l-6.856-4.57A.79.79 0 0 1 25 19.62v-1.74zM7.5 13.263c0-.42.34-.763.764-.763h13.472a.76.76 0 0 1 .764.763v10.974a.763.763 0 0 1-.764.763H8.264a.76.76 0 0 1-.764-.763V13.263z" fill="#FFF"/></g></svg><svg width="40" height="40" viewBox="0 0 40 40" id="project|images|icons|NoticeAttachmentWord.svg" x="384" y="507" xmlns="http://www.w3.org/2000/svg"><g fill="none" fill-rule="evenodd"><path fill="#FFF" d="M0 0h40v40H0z"/><rect fill="#2E5EA6" width="40" height="40" rx="1.14"/><path d="M10.535 7.5a.533.533 0 0 0-.535.534v21.432c0 .295.24.534.535.534h18.93a.533.533 0 0 0 .535-.534V7.872a.378.378 0 0 0-.382-.372H10.535z" fill="#FFF"/><path fill="#2E5EA6" d="M15 12.5h9.983v1.25H15zm0 5h9.983v1.25H15zm0 2.5h9.983v1.25H15zm0 2.5h7.488v1.25H15z"/></g></svg><svg width="40" height="40" viewBox="0 0 40 40" id="project|images|icons|NoticeAttachmentZip.svg" x="184" y="455" xmlns="http://www.w3.org/2000/svg"><g fill="none" fill-rule="evenodd"><path fill="#FFF" d="M0 0h40v40H0z"/><rect fill="#558ECE" width="40" height="40" rx="1.14"/><path d="M23.75 3.75v2.5h-7.5l.01-2.493 7.49-.007zm-4.984 20.208l.01-2.755-2.51-.03-.016-2.42 7.5-.003.016 2.423-2.458.046-.01 2.76A3.75 3.75 0 0 1 20 31.25a3.75 3.75 0 0 1-1.234-7.292zM23.75 8.75v2.5h-7.5l.01-2.493 7.49-.007zm-3.75 20a1.25 1.25 0 1 0 0-2.5 1.25 1.25 0 0 0 0 2.5zm3.75-15v2.5h-7.5l.01-2.49 7.49-.01z" fill="#FFF"/></g></svg><svg width="14" height="14" viewBox="0 0 14 14" id="project|images|icons|NoticeStatusDone.svg" x="598" y="455" xmlns="http://www.w3.org/2000/svg"><g fill="none" fill-rule="evenodd"><circle fill="#55D041" cx="7" cy="7" r="7"/><path d="M5.278 8.89L10.76 3 12 4.237l-5.602 5.83.02.022-.908.905-.002-.002-.005.006-.196-.196L2 7.69l1.097-1.096z" fill="#FFF"/></g></svg><svg width="14" height="10" viewBox="0 0 14 10" id="project|images|icons|NoticeStatusRetract.svg" x="598" y="469" xmlns="http://www.w3.org/2000/svg"><path d="M3 0v2h7.25c1.1 0 2 .9 2 2s-.9 2-2 2H5V4L0 7l5 3V8h5c2.21 0 4-1.79 4-4s-1.79-4-4-4H3z" fill="#008BFF" fill-rule="evenodd"/></svg><svg width="16" height="8" viewBox="0 0 16 8" id="project|images|icons|NoticeStatusSending.svg" x="598" y="305" xmlns="http://www.w3.org/2000/svg"><g transform="translate(1 1)" fill="#8CBF82" fill-rule="evenodd"><circle cx="10" cy="3" r="1"/><circle cx="13" cy="3" r="1"/><path d="M1.365 2.625L3.483.64a.358.358 0 0 0 0-.53.42.42 0 0 0-.566 0l-2.8 2.625a.36.36 0 0 0 0 .53l2.8 2.625c.078.073.18.11.283.11a.413.413 0 0 0 .283-.11.358.358 0 0 0 0-.53L1.5 3.43l-.135-.805z" stroke="#8CBF82"/><rect x="1" y="2" width="7" height="2" rx="1"/></g></svg><svg width="14" height="14" viewBox="0 0 14 14" id="project|images|icons|NoticeStatusTime.svg" x="598" y="493" xmlns="http://www.w3.org/2000/svg"><path d="M6.993 0A6.997 6.997 0 0 0 0 7c0 3.864 3.13 7 6.993 7A7.004 7.004 0 0 0 14 7c0-3.864-3.136-7-7.007-7zM7 12c-2.763 0-5-2.238-5-5s2.237-5 5-5 5 2.238 5 5-2.237 5-5 5zm.5-9H6v5l3.25 2.15.75-1.23-2.5-1.67V3z" fill="#FB6500" fill-rule="evenodd"/></svg><svg width="42" height="50" viewBox="0 0 42 50" id="project|images|icons|QuickImport.svg" x="84" y="507" xmlns="http://www.w3.org/2000/svg"><g fill="none" fill-rule="evenodd"><path d="M3.104.333C1.38.333 0 1.703 0 3.393v42.88c0 1.842 1.39 3.06 3.104 3.06h35.714c2.347 0 3.182-1.247 3.182-3.14V13.566c0-1.103-.638-2.626-1.422-3.398l-8.564-8.435c-.786-.774-2.32-1.4-3.42-1.4H3.104z" fill="#9BA6B6"/><path d="M23 27.333H12.002A1 1 0 0 1 11 26.323v-1.98c0-.558.456-1.01 1.002-1.01H23v-5c0-.552.324-.676.71-.29l7.29 7.29-7.29 7.29c-.392.392-.71.266-.71-.29v-5z" fill="#FFF"/></g></svg><svg width="17" height="21" viewBox="0 0 17 21" id="project|images|icons|Refresh.svg" x="515" y="432" xmlns="http://www.w3.org/2000/svg"><path d="M9.06 3.04L9.09 0 15 4.126l-5.987 3.83.028-2.91a6.5 6.5 0 1 0 5.875 7.536l1.95.466A8.5 8.5 0 1 1 9.06 3.04z" fill="#9B9B9B" fill-rule="evenodd"/></svg><svg width="7" height="11" viewBox="0 0 7 11" id="project|images|icons|SmallGrayArrowRight.svg" x="610" y="507" xmlns="http://www.w3.org/2000/svg"><path d="M6.31 5.364l.002.002-4.948 4.948-.9-.9 4.05-4.05-4.05-4.05.9-.9 4.948 4.948-.003.002z" fill="#C4CACF" fill-rule="evenodd"/></svg><svg width="20" height="20" viewBox="0 0 20 20" id="project|images|icons|StarBlueFilledLarge.svg" x="532" y="432" xmlns="http://www.w3.org/2000/svg"><path d="M9.997 16.015L4.73 19.018c-.478.273-.756.056-.622-.48l1.51-6.02-4.55-4.538c-.39-.39-.27-.708.296-.708H7.37l2.274-6.05c.195-.52.51-.527.71 0l2.273 6.05h6.005c.555 0 .69.313.295.708l-4.548 4.538 1.507 6.02c.135.538-.14.755-.622.48l-5.268-3.003z" fill="#0082EF" fill-rule="evenodd"/></svg><svg width="14" height="14" viewBox="0 0 14 14" id="project|images|icons|StarBlueFilledMedium.svg" x="598" y="399" xmlns="http://www.w3.org/2000/svg"><path d="M6.836 11.408l-3.784 2.158c-.484.276-.767.065-.632-.475l1.087-4.34-3.28-3.27c-.394-.393-.26-.712.288-.712H4.84L6.483.39c.194-.518.51-.52.705 0L8.83 4.766h4.326c.553 0 .688.313.287.712l-3.28 3.273 1.087 4.34c.135.54-.153.75-.632.477L6.834 11.41z" fill="#0082EF" fill-rule="evenodd"/></svg><svg width="20" height="20" viewBox="0 0 20 20" id="project|images|icons|StarBlueLarge.svg" x="598" y="80" xmlns="http://www.w3.org/2000/svg"><path d="M15.36 18.498l-1.536-6.134 4.602-4.592H12.28L9.997 1.7 7.715 7.772H1.568l4.602 4.592-1.537 6.134 5.364-3.06 5.364 3.06z" fill="#FFF" stroke="#0082EF" fill-rule="evenodd"/></svg><svg width="14" height="14" viewBox="0 0 14 14" id="project|images|icons|StarBlueMedium.svg" x="598" y="427" xmlns="http://www.w3.org/2000/svg"><path d="M10.727 13.05L9.61 8.6l3.34-3.332H8.486L6.836.873l-1.65 4.393H.72l3.34 3.332-1.117 4.453 3.89-2.216 3.89 2.218z" fill="#FFF" stroke="#0082EF" fill-rule="evenodd"/></svg><svg width="134" height="134" viewBox="0 0 134 134" id="project|images|icons|StepPhone.svg" y="134" xmlns="http://www.w3.org/2000/svg"><g fill="none" fill-rule="evenodd"><circle fill="#92BCDA" cx="67" cy="67" r="67"/><rect fill="#FFF" x="43" y="30" width="48" height="78" rx="4"/><circle fill="#92BCDA" cx="68" cy="101" r="3"/><path fill="#92BCDA" d="M49 37h36v58H49z"/></g></svg><svg width="134" height="134" viewBox="0 0 134 134" id="project|images|icons|StepScan.svg" x="134" xmlns="http://www.w3.org/2000/svg"><g fill="none" fill-rule="evenodd"><path d="M67 134c37.003 0 67-29.997 67-67S104.003 0 67 0 0 29.997 0 67s29.997 67 67 67z" fill="#92BCDA"/><path d="M95 40H83v-6h18v18h-6V40zm-56-6h12v6H39v12h-6V34h6zm56 60H83v6h18V82h-6v12zm-56 6h12v-6H39V82h-6v18h6z" fill="#FFF"/></g></svg><svg width="134" height="134" viewBox="0 0 134 134" id="project|images|icons|StepSuc.svg" xmlns="http://www.w3.org/2000/svg"><g fill="none" fill-rule="evenodd"><circle fill="#92BCDA" cx="67" cy="67" r="67"/><g transform="translate(27 28)"><circle stroke="#FFF" stroke-width="6" cx="40" cy="40" r="40"/><path d="M33.3 59.667a.998.998 0 0 1-.21-.162l-3.304-3.303a1.01 1.01 0 0 1-.062-.067L17.237 43.647a1.002 1.002 0 0 1-.004-1.415l3.302-3.303a.998.998 0 0 1 1.416.002L33.8 50.78l25.545-25.546a.998.998 0 0 1 1.41 0l3.303 3.303a.998.998 0 0 1 0 1.41L37.94 56.067a.995.995 0 0 1-.12.146l-3.304 3.303a.996.996 0 0 1-1.215.152z" fill="#FFF"/></g></g></svg><svg width="110" height="110" viewBox="0 0 110 110" id="project|images|icons|SuccLarge.svg" x="134" y="134" xmlns="http://www.w3.org/2000/svg"><g fill="none" fill-rule="evenodd"><circle fill="#60C745" cx="55" cy="55" r="55"/><path d="M45.63 76.6a3.84 3.84 0 0 1-3.322-1.077L25.33 58.545a3.847 3.847 0 0 1 0-5.436c1.5-1.5 3.936-1.5 5.436 0l14.91 14.91 33.557-33.557a3.85 3.85 0 0 1 5.442-.006 3.84 3.84 0 0 1-.006 5.442L49.036 75.53A3.852 3.852 0 0 1 45.63 76.6z" stroke="#FFF" stroke-width=".5" fill="#FFF"/></g></svg><svg width="18" height="18" viewBox="0 0 18 18" id="project|images|icons|SuccMini.svg" x="598" y="156" xmlns="http://www.w3.org/2000/svg"><g fill="none" fill-rule="evenodd"><circle fill="#60C745" cx="9" cy="9" r="9"/><path d="M7.478 12.745a.833.833 0 0 1-.7-.237L3.994 9.726a.843.843 0 0 1 .002-1.183.836.836 0 0 1 1.184-.002l2.294 2.296 5.344-5.343a.845.845 0 0 1 1.186 0 .844.844 0 0 1 0 1.185l-5.83 5.83a.84.84 0 0 1-.696.238z" stroke="#FFF" stroke-width=".5" fill="#FFF"/></g></svg><svg width="30" height="30" viewBox="0 0 30 30" id="project|images|icons|SuccSmall.svg" x="408" y="300" xmlns="http://www.w3.org/2000/svg"><g fill="none" fill-rule="evenodd"><circle fill="#60C745" cx="15" cy="15" r="15"/><path d="M12.444 21.077a1.22 1.22 0 0 1-1.03-.348L6.777 16.09c-.48-.48-.48-1.255.003-1.737a1.226 1.226 0 0 1 1.736-.003l3.94 3.94L21.48 9.27a1.23 1.23 0 1 1 1.74 1.74l-9.718 9.718a1.23 1.23 0 0 1-1.058.35z" stroke="#FFF" stroke-width=".5" fill="#FFF"/></g></svg><svg width="40" height="40" viewBox="0 0 40 40" id="project|images|icons|TagLarge.svg" x="224" y="455" xmlns="http://www.w3.org/2000/svg"><g fill="none" fill-rule="evenodd"><path fill="#7DA4D1" d="M0 0h40v40H0z"/><path d="M15 12h17.007c.548 0 .993.445.993 1v14c0 .552-.445 1-.993 1H15l-8-8 8-8zm-1 9a1 1 0 1 0 0-2 1 1 0 0 0 0 2z" fill="#FFF"/></g></svg><svg width="19" height="19" viewBox="0 0 19 19" id="project|images|icons|ToLeftImage.svg" x="598" y="100" xmlns="http://www.w3.org/2000/svg"><path d="M3.487 10.073l6.625 6.624-1.415 1.415L0 9.414l.358-.358L0 8.696 8.697 0l1.415 1.414-6.66 6.66h14.86v2H3.487z" fill="#9B9B9B" fill-rule="evenodd"/></svg><svg width="19" height="19" viewBox="0 0 19 19" id="project|images|icons|ToRightImage.svg" x="598" y="119" xmlns="http://www.w3.org/2000/svg"><path d="M15.825 10.073L9.2 16.697l1.415 1.415 8.697-8.698-.358-.358.358-.36L10.615 0 9.2 1.414l6.66 6.66H1v2h14.825z" fill="#9B9B9B" fill-rule="evenodd"/></svg><svg width="11" height="10" viewBox="0 0 11 10" id="project|images|icons|ToRightSmallImage.svg" x="598" y="521" xmlns="http://www.w3.org/2000/svg"><g fill="none" fill-rule="evenodd"><path d="M6.136 0L10.5 4.5" stroke="#9BA2A8" stroke-linecap="square"/><path fill="#9BA2A8" d="M0 4h10v1H0z"/><path d="M10.5 4.5L6.136 8.78" stroke="#9BA2A8" stroke-linecap="square"/></g></svg><svg width="17" height="17" viewBox="0 0 17 17" id="project|images|icons|VerifyDomain.svg" x="598" y="224" xmlns="http://www.w3.org/2000/svg"><g transform="translate(1)" fill="none" fill-rule="evenodd"><circle fill="#F5A623" cx="8" cy="8" r="8"/><path fill="#FFF" d="M13.5 5.806h-9l2 2h-1l-3-3h11zm-11 5h9l-2-2h1l3 3h-11z"/></g></svg><svg width="14" height="14" viewBox="0 0 14 14" id="project|images|icons|VerifyDomainSucced.svg" x="598" y="441" xmlns="http://www.w3.org/2000/svg"><g fill="none" fill-rule="evenodd"><circle fill="#2EC762" cx="7" cy="7" r="7"/><path d="M5.958 9.808a.498.498 0 0 1-.642-.055l-2.18-2.18a.508.508 0 0 1 .003-.71.5.5 0 0 1 .71-.003l1.885 1.887 4.42-4.42a.505.505 0 0 1 .712.713l-4.63 4.632a.482.482 0 0 1-.28.136z" fill="#FFF"/></g></svg><svg width="18" height="18" viewBox="0 0 18 18" id="project|images|icons|WatingMini.svg" x="598" y="206" xmlns="http://www.w3.org/2000/svg"><path d="M9 18A9 9 0 1 1 9 0a9 9 0 0 1 0 18zm1-9V5H8v6h5V9h-3z" fill="#30A8FE" fill-rule="evenodd"/></svg><svg width="80" height="75" viewBox="0 0 80 75" id="project|images|icons|WechatBiz.svg" x="268" y="174" xmlns="http://www.w3.org/2000/svg"><path d="M6.753 57.912C2.488 52.03 0 44.95 0 37.332c0-20.433 17.91-37 40-37s40 16.567 40 37c0 20.436-17.91 37-40 37-6.736 0-13.083-1.54-18.653-4.26-1.267-.62-2.787-.703-4.135-.33L6.86 72.6c-.854.236-1.36-.284-1.13-1.16l2.19-8.38c.52-2.12-.16-3.764-1.167-5.15zm59.233-13.2c-2.354-.03-4.908-1.563-7.41-4.194-.893-.94-2.505-3.02-2.505-3.02s1.613-2.074 2.508-3.016c2.5-2.63 5.055-4.165 7.41-4.193v-.004h.072c1.33 0 2.405-1.182 2.405-2.643 0-1.46-1.077-2.644-2.406-2.644h-.075c-2.106 0-4.172.663-6.175 1.864-1.617.97-3.153 2.264-4.607 3.8a32.194 32.194 0 0 0-2.048 2.396 32.194 32.194 0 0 0-2.048-2.394c-1.455-1.537-2.99-2.83-4.608-3.8C44.494 25.663 42.43 25 40.32 25s-4.172.664-6.176 1.865c-1.617.97-3.153 2.264-4.607 3.8a32.195 32.195 0 0 0-2.05 2.396 32.195 32.195 0 0 0-2.05-2.393c-1.452-1.537-2.99-2.83-4.605-3.8-1.96-1.176-3.98-1.837-6.038-1.865a2.235 2.235 0 0 0-.138 0c-1.296.044-2.334 1.21-2.334 2.644 0 1.434 1.038 2.6 2.333 2.643h.064c2.372 0 4.95 1.538 7.474 4.193.888.935 2.375 3.015 2.375 3.015s-1.485 2.084-2.376 3.02c-2.525 2.656-5.103 4.195-7.475 4.195h-.065c-1.295.043-2.333 1.21-2.333 2.644 0 1.433 1.038 2.6 2.333 2.643a9.084 9.084 0 0 0 .138 0c2.06-.03 4.078-.69 6.038-1.865 1.618-.97 3.153-2.264 4.607-3.8a32.19 32.19 0 0 0 2.05-2.396 32.19 32.19 0 0 0 2.047 2.393c1.454 1.537 2.99 2.83 4.607 3.8C36.15 49.337 38.217 50 40.324 50c2.106 0 4.172-.664 6.175-1.865 1.616-.97 3.15-2.264 4.606-3.8a32.19 32.19 0 0 0 2.048-2.396 32.19 32.19 0 0 0 2.048 2.393c1.454 1.537 2.99 2.83 4.608 3.8C61.815 49.337 63.88 50 65.987 50h.073c1.33 0 2.405-1.184 2.405-2.644 0-1.46-1.077-2.644-2.406-2.644h-.075zm-31.84-5.126c-.717-.772-2.005-2.477-2.005-2.477s1.29-1.7 2.006-2.474c2.018-2.178 4.08-3.44 5.977-3.44 1.897 0 3.96 1.262 5.978 3.44.71.766 1.9 2.472 1.9 2.472s-1.187 1.708-1.9 2.476c-2.02 2.178-4.08 3.44-5.977 3.44-1.897 0-3.96-1.262-5.977-3.44z" fill="#4586C8" fill-rule="evenodd"/></svg><svg width="16" height="16" viewBox="0 0 16 16" id="project|images|icons|WirelessProjection16.svg" x="598" y="257" xmlns="http://www.w3.org/2000/svg"><g fill="none" fill-rule="evenodd"><path fill="#47B3E1" d="M0 0h16v16H0z"/><path d="M11.165 11.077l-1.055-1.23h1.582v-4.31H4.308v4.308H5.89l-1.055 1.23H3.538a.462.462 0 0 1-.46-.46V4.768c0-.255.206-.46.46-.46h8.924c.254 0 .46.205.46.46v5.846a.462.462 0 0 1-.46.462h-1.297zM8 8.615l2.462 3.077H5.538L8 8.615z" fill="#FFF"/></g></svg><svg width="30" height="30" viewBox="0 0 30 30" id="project|images|icons|WirelessProjection30.svg" x="341" y="88" xmlns="http://www.w3.org/2000/svg"><g fill="none" fill-rule="evenodd"><path fill="#47B3E1" d="M0 0h30v30H0z"/><path d="M20.934 20.77l-1.978-2.308h2.967v-8.077H8.077v8.077h2.967L9.066 20.77h-2.43a.865.865 0 0 1-.867-.866V8.942c0-.478.386-.865.864-.865h16.73c.478 0 .866.387.866.865v10.962a.865.865 0 0 1-.865.865h-2.43zM15 16.153l4.615 5.77h-9.23L15 16.153z" fill="#FFF"/></g></svg><svg width="42" height="50" viewBox="0 0 42 50" id="project|images|icons|XlsThumb.svg" x="126" y="507" xmlns="http://www.w3.org/2000/svg"><g fill="none" fill-rule="evenodd" opacity=".661"><path d="M1.996.333A2.002 2.002 0 0 0 0 2.326v44.528c0 1.1.893 1.993 2.003 1.993h37.81a2 2 0 0 0 2.004-2v-34.95L29.047.333H1.997z" fill="#C5D2DC"/><path fill="#B3C4D2" d="M28.76.333v11.564h12.77z"/><path fill="#FFF" d="M26.84 36.812l-5.858-5.79-3.817 3.757H20.8v2.03h-9.195l7.593-7.555-7.125-7.045h3.372l5.433 5.374 5.4-5.373h3.37l-7.003 7.12 7.565 7.48z"/></g></svg><svg width="42" height="50" viewBox="0 0 42 50" id="project|images|icons|XlsThumbHighlighted.svg" x="42" y="507" xmlns="http://www.w3.org/2000/svg"><g fill="none" fill-rule="evenodd"><path d="M1.996.333A2.002 2.002 0 0 0 0 2.326v44.528c0 1.1.893 1.993 2.003 1.993h37.81a2 2 0 0 0 2.004-2v-34.95L29.047.333H1.997z" fill="#61AF45"/><path fill="#60C43C" d="M28.76.333v11.564h12.77z"/><path fill="#FFF" d="M26.84 36.812l-5.858-5.79-3.817 3.757H20.8v2.03h-9.195l7.593-7.555-7.125-7.045h3.372l5.433 5.374 5.4-5.373h3.37l-7.003 7.12 7.565 7.48z"/></g></svg><svg width="73" height="86" viewBox="0 0 73 86" id="project|images|icons|XlsThumbLarge.svg" x="268" y="88" xmlns="http://www.w3.org/2000/svg"><g fill="none" fill-rule="evenodd"><path d="M1.995.333A1.992 1.992 0 0 0 0 2.33v80.16c0 1.105.893 2 2 2h68.68a2 2 0 0 0 2.002-2.007v-62.09L50.485.333H1.995z" fill="#61AF45"/><path fill="#60C43C" d="M49.988.333v20.06h22.196z"/><path fill="#FFF" d="M46.65 63.612L36.47 53.567l-6.635 6.52h6.32v3.525H20.17l13.197-13.107-12.383-12.22h5.86l9.443 9.32 9.384-9.32h5.86l-12.17 12.35 13.15 12.977z"/></g></svg></svg>